<svg width="410" height="165" viewBox="0 0 410 165" fill="none" xmlns="http://www.w3.org/2000/svg">
<path d="M36.8572 134.478C36.8572 134.804 36.9474 135.112 37.1023 135.377C37.6987 134.772 38.4569 134.326 39.3053 134.096C39.6612 132.844 40.8148 131.929 42.1855 131.929C42.3011 131.929 42.4167 131.933 42.5277 131.947C41.388 132.274 40.4657 133.12 40.0404 134.213C39.3307 134.445 38.8198 135.112 38.8198 135.897C38.8198 136.263 38.9308 136.603 39.1226 136.884C39.7398 136.196 40.5489 135.688 41.4666 135.441C41.7302 134.126 42.8282 133.113 44.1897 132.971C43.0039 133.465 42.1694 134.634 42.1694 135.996C42.1694 136.477 42.2734 136.934 42.4629 137.346C42.671 136.596 43.3622 136.046 44.1805 136.046C44.3885 136.046 44.585 136.081 44.7653 136.145C45.0219 136.237 45.297 136.286 45.579 136.286C46.8967 136.286 47.9669 135.221 47.9669 133.907C47.9669 133.645 47.9253 133.394 47.8467 133.155C48.4732 133.336 48.9309 133.914 48.9309 134.599C48.9309 134.912 48.8361 135.2 48.672 135.441C48.8477 135.471 49.028 135.49 49.2129 135.49C50.7663 135.49 52.047 134.328 52.225 132.828C53.004 132.409 53.6882 131.841 54.28 131.133L54.6938 133.143C54.7238 133.281 54.7123 133.422 54.6776 133.548C54.6406 133.677 54.5713 133.799 54.4719 133.9L56.1848 132.149C56.2842 132.048 56.3535 131.926 56.3882 131.797C56.4275 131.669 56.4345 131.531 56.4044 131.39L55.9005 128.938C55.8704 128.8 55.8797 128.66 55.9166 128.533C55.9536 128.404 56.023 128.282 56.1224 128.181L57.4701 126.812C57.3707 126.914 57.3013 127.035 57.2666 127.164C57.2297 127.293 57.2227 127.431 57.2528 127.569L57.7567 130.026C57.7868 130.166 57.7775 130.304 57.7428 130.433C57.7058 130.56 57.6411 130.677 57.544 130.781L59.072 129.2C59.1691 129.099 59.2385 128.977 59.2754 128.848C59.3147 128.722 59.3217 128.581 59.2893 128.443L58.7877 125.993C58.7576 125.855 58.7669 125.715 58.8039 125.588C58.8409 125.46 58.9102 125.338 59.0096 125.236L60.3573 123.868C60.2579 123.969 60.1885 124.091 60.1539 124.22C60.1169 124.346 60.1099 124.487 60.14 124.625L60.6462 127.081C60.6763 127.219 60.6647 127.36 60.6277 127.486C60.5908 127.613 60.526 127.73 60.4289 127.834L61.9569 126.253C62.0563 126.152 62.1234 126.028 62.1604 125.901C62.1997 125.772 62.2066 125.634 62.1765 125.494L61.9315 124.296C61.6726 122.941 63.0804 121.381 64.1946 121.222C64.3287 120.964 64.4026 120.686 64.4026 120.399C64.4026 119.023 62.7568 117.907 60.7248 117.907C59.7331 117.907 58.8316 118.174 58.1682 118.609C58.434 119.391 58.4895 120.187 55.8843 120.557C53.8177 120.847 51.9984 121.247 50.6184 122.414C48.4871 124.21 48.6604 126.614 47.4491 127.523C47.9877 127.654 48.672 127.654 49.4071 127.496C49.8694 127.397 50.2994 127.242 50.6762 127.054C50.4496 127.489 49.9295 127.898 49.2476 128.188C49.0234 129.037 48.2651 129.847 47.2411 130.224C46.5961 130.461 45.9535 130.486 45.4241 130.334L42.9299 129.617C42.6224 129.529 42.3034 129.483 41.9706 129.483C40.1328 129.483 38.6164 130.891 38.3922 132.713C37.523 132.833 36.8572 133.576 36.8572 134.471V134.478ZM61.5062 36.3526C62.9417 34.9539 64.6014 33.7876 66.4276 32.9088C66.3745 32.6948 66.3444 32.4763 66.3444 32.2555V32.2416C58.7276 33.4862 51.8713 37.3786 45.6807 37.3441C43.9447 37.3372 42.5855 36.677 42.3659 35.582C42.3219 35.3657 42.3266 35.1426 42.3728 34.9194C42.4653 34.4961 42.8467 34.1718 43.3044 34.1718C43.8314 34.1718 44.2545 34.595 44.2545 35.1173C44.2545 35.3703 44.1574 35.5981 43.9979 35.7683C44.1759 35.7844 44.3585 35.7936 44.548 35.7936C45.0381 35.7936 45.5027 35.7338 45.9142 35.6211C46.5846 35.4439 47.077 34.8343 47.077 34.1096C47.077 33.2493 46.3719 32.5499 45.5051 32.5499C45.4588 32.5499 45.4103 32.5522 45.364 32.5545C45.5813 32.4625 45.8241 32.4119 46.0783 32.4119C47.0839 32.4119 47.9022 33.224 47.9022 34.2293C47.9022 34.2822 47.8999 34.3328 47.8953 34.3834C50.6161 34.3213 53.6813 31.8529 54.3517 30.912C53.4987 31.1052 52.5763 31.2133 51.6101 31.2133C50.5167 31.2133 49.4695 31.0776 48.524 30.8291C47.1856 30.4772 45.8703 30.2816 44.8601 30.2816C41.5198 30.2816 38.8175 32.4464 38.8175 35.1173C38.8175 37.3234 40.6506 39.2535 43.1888 39.7688C48.9679 40.9467 55.7641 37.5282 61.5062 36.3457V36.3526ZM28.9283 44.218C29.0809 43.4082 29.1456 42.6237 29.1156 41.8669L28.3874 42.7158C28.2441 42.3799 28.1493 42.1705 28.0499 42.0026C27.969 41.8646 27.8997 41.7703 27.8072 41.7519C27.7587 41.7749 27.6847 41.8186 27.6038 41.8347C27.5113 41.8554 27.3842 41.8485 27.3056 41.8485C27.2316 41.8485 27.1068 41.8554 27.012 41.8347C26.9334 41.8186 26.8617 41.7772 26.8109 41.7519C26.7138 41.7703 26.6468 41.8623 26.5682 42.0026C26.4711 42.1705 26.374 42.3799 26.2307 42.7158L25.5002 41.8669C25.4724 42.6237 25.5349 43.4082 25.6874 44.218C26.226 44.1006 26.7831 44.0592 27.3056 44.0592C27.8349 44.0592 28.3897 44.1006 28.9283 44.218ZM29.2543 46.4011C29.3352 45.4809 28.2857 45.1543 27.3056 45.1543C26.3278 45.1543 25.2806 45.4809 25.3615 46.4011C25.4609 47.5215 26.515 46.9878 27.3056 46.9924C28.1031 46.9878 29.1549 47.5215 29.2543 46.4011ZM32.0514 39.7826C31.8595 39.8332 31.7555 39.946 31.7323 40.1484C31.6168 41.2296 31.1776 41.6667 30.4725 41.9106C30.4633 42.9987 30.3107 43.8269 30.0148 44.8506C30.8516 46.5898 30.209 47.8044 29.5317 48.0667C28.8844 48.3128 28.0522 47.9793 27.3148 47.9793C26.5774 47.9793 25.7314 48.3128 25.0841 48.0667C24.4045 47.8044 23.7665 46.5898 24.5987 44.8506C24.3051 43.8269 24.1502 43.001 24.1433 41.9106C23.4382 41.6667 22.9944 41.2296 22.8811 40.1484C22.858 39.946 22.754 39.8355 22.5644 39.7826C19.7858 39.0235 19.5223 35.5889 20.9278 34.6134C20.803 36.1525 20.6689 38.3241 23.8289 38.614C23.778 40.4176 24.5594 40.9007 25.3684 40.9007C26.0296 40.903 26.4063 40.6913 26.5728 40.6039C27.1599 40.2933 26.7554 39.8194 26.6052 39.6768C26.2006 39.3018 25.9972 38.7704 26.0943 38.2344C26.1105 38.1401 26.1474 38.0918 26.2376 38.0918H27.3056H28.3782C28.4683 38.0918 28.5076 38.1401 28.5215 38.2344C28.6186 38.7704 28.4152 39.3018 28.0129 39.6768C27.8627 39.8171 27.4581 40.2933 28.0453 40.6039C28.2094 40.6913 28.5885 40.903 29.2497 40.9007C30.0564 40.9007 30.8401 40.4176 30.7892 38.614C33.9469 38.3264 33.8128 36.1548 33.6903 34.6134C35.0958 35.5889 34.8299 39.0235 32.0537 39.7826H32.0514ZM32.9067 33.7899C32.9067 34.5789 32.3264 35.4554 31.6653 35.4554H31.0597C31.2122 35.6372 31.3047 35.8718 31.3047 36.1249C31.3047 36.7092 30.8308 37.1831 30.2437 37.1831C29.6565 37.1831 29.1826 36.7092 29.1826 36.1249C29.1826 35.8718 29.2751 35.6372 29.4253 35.4554H28.792C28.5747 35.4554 28.4059 35.5451 28.2718 35.7959C28.2279 35.4554 28.184 35.1034 28.2626 34.8734C28.3689 34.5536 28.6186 34.365 28.8659 34.365H31.6491C32.1623 34.365 32.546 34.1902 32.9043 33.7899H32.9067ZM32.5391 32.4763H31.5659C31.0828 32.4763 30.7499 32.2785 30.4679 31.9587L29.3583 30.5186C29.1757 30.2908 29.0301 30.1298 28.7943 30.0263H29.89C30.2182 30.0263 30.5118 30.1643 30.7407 30.4588L31.8965 31.9219C32.1554 32.2324 32.234 32.4395 32.5391 32.4786V32.4763ZM27.4674 30.0999L28.8867 32.0806C29.111 32.4073 29.3236 32.5867 29.6288 32.7132H28.3296C27.8303 32.7132 27.5298 32.4832 27.3102 32.1266L26.1937 30.4243C25.7683 29.7847 25.5996 29.6283 25.1095 29.4512H26.3162C26.7924 29.4512 27.2339 29.7594 27.4697 30.0999H27.4674ZM24.2519 30.4565L25.4077 31.9196C25.6666 32.2301 25.7452 32.4372 26.0504 32.4763H25.0795C24.594 32.4763 24.2588 32.2785 23.9768 31.9587L22.8672 30.5186C22.6846 30.2908 22.5413 30.1298 22.3032 30.0263H23.3989C23.7272 30.0263 24.0207 30.1643 24.2496 30.4588L24.2519 30.4565ZM23.5515 35.4577H22.9435C22.2847 35.4577 21.7022 34.5789 21.7022 33.7922C22.0628 34.1925 22.4419 34.3673 22.9597 34.3673H25.7429C25.9926 34.3673 26.2399 34.5559 26.3462 34.8757C26.4248 35.1058 26.3809 35.4577 26.337 35.7982C26.2029 35.5451 26.0342 35.4577 25.8169 35.4577H25.1835C25.3338 35.6395 25.4239 35.8741 25.4239 36.1272C25.4239 36.7115 24.95 37.1854 24.3629 37.1854C23.778 37.1854 23.3041 36.7115 23.3041 36.1272C23.3041 35.8741 23.3943 35.6395 23.5469 35.4577H23.5515ZM20.121 48.6533L20.4585 47.9977C20.5232 47.8711 20.551 47.7354 20.5487 47.602C20.5464 47.4709 20.5117 47.3328 20.4423 47.2132L21.367 48.865C21.434 48.9892 21.4687 49.1272 21.471 49.2537C21.4756 49.3895 21.4479 49.5275 21.3809 49.654L21.3 49.8174C20.7313 50.9147 20.2019 52.969 20.7891 54.1584C19.4206 53.65 18.9698 52.4583 19.1155 51.4645C16.5357 49.0352 15.8884 46.5691 17.7285 44.5009L18.6716 43.4013C18.7687 43.2932 18.8311 43.1713 18.8566 43.0424C18.8889 42.9136 18.8889 42.7756 18.8519 42.6398L19.3443 44.4664C19.379 44.6022 19.3813 44.7425 19.3512 44.8736C19.3212 45.0024 19.2611 45.1267 19.1686 45.2348L18.8797 45.5707C17.918 46.6864 18.1746 48.1978 19.6818 49.5528C19.8413 49.1709 19.943 48.9754 20.121 48.651V48.6533ZM83.3303 55.5111C83.4297 55.2672 83.4875 54.998 83.4875 54.7128C83.4875 53.5694 82.5536 52.6354 81.4001 52.6354H79.2895C79.1462 52.6377 79.0122 52.5986 78.8919 52.5388C78.7764 52.479 78.6677 52.3847 78.5868 52.2697L77.5304 50.7145C77.6113 50.8342 77.7153 50.9239 77.8355 50.9814C77.9511 51.0458 78.0898 51.0803 78.2331 51.078L81.014 51.0803C81.1574 51.0803 81.2937 51.1171 81.4116 51.1769C81.5272 51.2391 81.6359 51.3311 81.7168 51.4484L80.4384 49.5896C80.3575 49.4677 80.2512 49.3803 80.131 49.3204C80.0154 49.2537 79.8767 49.2215 79.7357 49.2215L76.9756 49.2238C76.8346 49.2238 76.6982 49.1893 76.5803 49.1272C76.4601 49.0605 76.3538 48.9708 76.2729 48.8557L75.0731 47.1005C75.154 47.2201 75.2604 47.3098 75.3783 47.3696C75.4985 47.4318 75.6326 47.4686 75.7759 47.4686L78.5452 47.4663C78.6885 47.4663 78.8249 47.5008 78.9428 47.5629C79.063 47.625 79.167 47.717 79.2479 47.832L77.9719 45.9686C77.891 45.8536 77.7847 45.7616 77.6645 45.6995C77.5466 45.6374 77.4102 45.6029 77.2692 45.6029H75.0685C74.9252 45.6029 74.7911 45.5661 74.6709 45.5062C74.5553 45.4418 74.4467 45.3521 74.3658 45.2325L72.8863 43.0769C75.8776 42.7204 78.2909 41.1077 78.7694 38.8854C79.3913 36.0029 76.5133 33.2056 72.3454 32.5959C71.645 32.4947 71.1087 31.8943 71.1087 31.1696C71.1087 30.5554 71.4994 30.0263 72.0472 29.8238C71.6034 29.6306 71.1064 29.5248 70.5793 29.5248C68.7346 29.5248 67.2413 30.8407 67.2413 32.4625C67.2413 32.7547 67.2922 33.0376 67.3823 33.3022C65.3157 34.1925 63.4341 35.766 61.9939 37.466C63.5335 37.0589 65.1516 36.838 66.8206 36.838C66.8137 36.7621 66.8091 36.6839 66.8091 36.6057C66.8091 35.3634 67.8169 34.3558 69.0698 34.3558H69.1022C68.2492 34.7285 67.8354 35.5428 67.8354 36.0835C67.8354 36.723 68.3578 37.2452 69.0028 37.2452C69.2548 37.2452 69.4882 37.167 69.6778 37.0313C69.6339 36.8886 69.6107 36.7299 69.6107 36.5712C69.6107 35.6809 70.3343 34.9608 71.2312 34.9608C71.3098 34.9608 71.3907 34.9654 71.4647 34.9769C70.8475 35.2645 70.4198 35.8902 70.4198 36.6126C70.4198 37.6087 71.2312 38.4162 72.2321 38.4162C72.3385 38.4162 72.4425 38.4092 72.5442 38.3931C72.5142 38.2873 72.5003 38.1769 72.5003 38.0619C72.5003 37.3464 73.0828 36.7713 73.7994 36.7713C74.5183 36.7713 75.1009 37.3464 75.1009 38.0619C75.1009 39.6193 73.3648 39.7596 72.1004 39.4008C68.4988 38.3655 65.1262 37.9031 61.8622 38.3586C57.6758 38.9453 50.8172 41.7611 43.5379 41.5264C41.9105 41.4758 40.1328 41.2066 38.3436 40.7189C38.5632 40.9582 38.7042 41.1238 38.7967 41.2641C39.5064 42.3638 39.7491 43.5117 39.1226 44.9564C39.1411 43.3415 37.8004 42.0118 36.6746 41.1951C36.2215 40.8685 36.0389 40.5556 36.1152 40.1369L36.4481 38.2735C36.425 38.4115 36.4365 38.5473 36.4781 38.6761C36.5197 38.8003 36.5914 38.92 36.6931 39.0212L37.3935 39.7021C37.6594 37.818 37.2294 36.0582 36.1013 34.4317C36.6006 33.1319 36.67 31.6964 36.3348 30.3529C36.203 31.3721 35.7014 31.8092 35.2252 32.1013C34.3399 32.658 34.1942 33.5851 34.6519 34.2063C33.903 33.8313 32.872 32.4487 33.4684 31.6412C34.111 30.767 35.8748 31.1788 36.0898 29.6858C34.9478 29.3246 33.7689 29.5777 33.4106 29.672C32.7333 28.9013 31.8341 28.5172 30.7152 28.5241C29.8322 27.7258 28.6949 27.3945 27.3033 27.5303C25.9186 27.3945 24.7836 27.7258 23.8982 28.5241C22.7794 28.5172 21.8802 28.899 21.2029 29.672C20.8423 29.5777 19.6679 29.3223 18.5214 29.6858C18.7387 31.1765 20.4978 30.767 21.1428 31.6412C21.7392 32.4487 20.7082 33.829 19.9592 34.2063C20.4192 33.5851 20.2713 32.6557 19.3859 32.1013C18.912 31.8092 18.4081 31.3721 18.2763 30.3529C17.9435 31.6964 18.0128 33.1319 18.5098 34.4317C17.3794 36.0582 16.9518 37.818 17.2176 39.7021L17.9203 39.0212C18.0221 38.9223 18.0937 38.8026 18.1353 38.6761C18.1769 38.5473 18.1862 38.4115 18.1584 38.2735L18.4913 40.1369C18.563 40.5556 18.385 40.8685 17.9319 41.1951C16.8061 42.0118 15.4654 43.3415 15.4839 44.9564C14.8597 43.514 15.1117 42.3155 15.8121 41.2641C13.6762 40.1162 12.0511 38.2344 11.7506 37.887C11.1057 37.1371 11.1912 36.187 11.7737 35.3519C12.9041 33.7462 13.1699 32.0346 11.7552 30.8637C11.7645 30.7762 11.7691 30.6911 11.7691 30.6037C11.7691 29.5386 11.0086 28.6483 9.99838 28.4504C10.1856 28.7426 10.2966 29.09 10.2966 29.4581C10.2966 29.886 10.1556 30.2724 9.91285 30.5922C10.114 30.8522 10.2319 31.1765 10.2319 31.5331C10.2319 32.0093 10.0169 32.4326 9.67707 32.7155C9.71174 32.5522 9.72561 32.3843 9.72561 32.2094C9.72561 31.1121 9.04599 30.1965 8.12134 29.9435C7.97108 29.1475 7.27066 28.5402 6.42691 28.5402C5.93685 28.5402 5.49995 28.7449 5.18325 29.067C5.83745 29.1199 6.36219 29.6306 6.43385 30.2724C6.12178 30.5071 5.86981 30.8291 5.70799 31.2064H5.75192C6.87999 31.2064 7.79309 32.1151 7.79309 33.2401C7.79309 33.3643 7.78153 33.4908 7.75841 33.6104C7.67288 33.1503 7.46484 32.7248 7.12503 32.3958C6.49164 31.7793 5.57161 31.655 4.72555 31.9725C4.40886 31.5745 3.9211 31.3238 3.37556 31.3238C2.75604 31.3238 2.21512 31.6458 1.9123 32.1312C2.53644 32.1588 3.08429 32.4717 3.4241 32.9433C2.54106 34.0728 2.5295 35.6326 3.43797 36.5159C4.05055 37.1118 4.93129 37.2475 5.75192 36.9691C5.80508 36.9507 5.86287 36.9392 5.92529 36.9392C6.22811 36.9392 6.47083 37.1831 6.47083 37.4822C6.47083 37.7812 6.2258 38.0228 5.92529 38.0228C5.79353 38.0228 5.67101 37.9768 5.57854 37.8985C5.3705 37.726 5.10235 37.6248 4.81339 37.6248C4.15458 37.6248 3.62059 38.1539 3.62059 38.8141C3.62059 38.8624 3.6229 38.9131 3.62984 38.9591C3.51888 38.9959 3.39867 39.0143 3.27385 39.0143C2.95022 39.0143 2.65895 38.8831 2.44397 38.6738C2.4093 38.8026 2.39311 38.9384 2.39311 39.0787C2.39311 39.9161 3.04037 40.6016 3.86794 40.666C4.24011 41.5793 5.14165 42.2281 6.19575 42.2281C6.73667 42.2281 7.23598 42.0578 7.64514 41.7726C7.82545 41.6483 8.04043 41.5747 8.27391 41.5747C8.88187 41.5747 9.37193 42.0647 9.37193 42.6697C9.37193 43.1897 9.00669 43.6221 8.51663 43.7372L7.66132 43.9212C7.52263 43.9557 7.38162 43.9488 7.25217 43.9097C7.12271 43.8775 7.0002 43.8108 6.89849 43.7119L8.85644 45.5615C8.96277 45.6581 9.08298 45.7248 9.21243 45.7593C9.34188 45.7961 9.48058 45.803 9.61928 45.7731L11.2235 45.4188C11.3622 45.3866 11.5033 45.3958 11.6304 45.428C11.7575 45.4648 11.8847 45.5292 11.9864 45.6282L13.3294 46.9003C13.2254 46.8037 13.1029 46.7324 12.9711 46.7002C12.8463 46.6634 12.7053 46.6565 12.5643 46.6887L10.967 47.0384C10.8259 47.0729 10.6873 47.066 10.5601 47.0292C10.4307 46.9947 10.3058 46.9302 10.2041 46.8313L11.9979 48.5245C12.0997 48.6211 12.2245 48.6878 12.3516 48.7246C12.4811 48.7591 12.6221 48.7637 12.7608 48.7338L14.3651 48.3842C14.5061 48.3519 14.6448 48.3565 14.7742 48.3957C14.9037 48.4302 15.0262 48.4969 15.1302 48.5958L16.4733 49.8634C16.3692 49.7667 16.2467 49.7046 16.1173 49.6655C15.9878 49.631 15.8491 49.6264 15.7081 49.6563L14.1085 50.0083C13.9675 50.0382 13.8288 50.0313 13.6993 49.9945C13.5699 49.96 13.4473 49.8956 13.3433 49.7967L15.1371 51.4875C15.2435 51.5864 15.3637 51.6554 15.4931 51.6853C15.6226 51.7245 15.7613 51.7314 15.9023 51.6969L17.8394 51.2782C15.9578 52.3364 13.9536 53.5349 11.8315 54.8715C10.5763 55.6583 9.20549 55.8078 7.62665 55.2051C6.77828 54.883 5.86056 54.8278 5.28034 54.9267C4.52444 55.0579 3.88412 55.5134 3.51194 56.1437C3.80321 56.0287 4.12453 55.9643 4.45971 55.9643C5.16476 55.9643 5.80046 56.2449 6.26279 56.705C5.53 56.399 4.6169 56.3691 3.72924 56.6912C2.14808 57.2617 1.22343 58.7501 1.58404 60.0798C0.992266 60.3076 0.578484 60.8781 0.578484 61.5406C0.578484 61.98 0.758791 62.378 1.05237 62.661C1.20725 61.9616 1.82214 61.4371 2.56649 61.4072C2.87625 61.6119 3.23686 61.7569 3.6229 61.8351C3.73848 61.6327 3.88874 61.4555 4.0598 61.2968C4.04131 61.1726 4.03206 61.0437 4.03206 60.9126C4.03206 59.4725 5.20175 58.3084 6.64652 58.3084C6.76672 58.3084 6.8823 58.3153 7.0002 58.3338C5.85132 58.6075 4.99832 59.6358 4.99832 60.8643C4.99832 61.0207 5.01219 61.1725 5.03993 61.3198C4.42273 61.5567 3.98583 62.1503 3.98583 62.8496C3.98583 63.2499 4.12915 63.6134 4.37187 63.9009C4.81571 63.0359 5.68026 62.4263 6.69737 62.3297C7.07879 62.4401 7.48333 62.4999 7.90173 62.4999C8.16526 62.4999 8.42185 62.4792 8.6692 62.4355C8.44497 62.1088 8.3132 61.7155 8.3132 61.2876C8.3132 60.1718 9.22168 59.2654 10.3474 59.2654C10.4445 59.2654 10.537 59.2701 10.6364 59.2839C9.56149 59.7394 8.90267 60.6687 9.12921 61.5153C9.29102 62.1111 9.85737 62.5298 10.5925 62.6679C10.5832 63.1142 10.4584 63.5375 10.2457 63.9055C11.1889 63.8388 11.9956 63.2729 12.3979 62.47C13.5098 62.026 14.194 61.0782 13.9651 60.2179C13.8842 59.9096 13.6901 59.6496 13.4288 59.4541C13.4265 59.4242 13.4242 59.392 13.4242 59.3644C13.4242 58.7685 13.9097 58.29 14.5014 58.29C15.1002 58.29 15.5833 58.7708 15.5833 59.3644C15.5833 59.645 15.477 59.9004 15.299 60.089H17.5574C17.6984 60.089 17.8348 60.0545 17.9527 59.9901C18.0729 59.9326 18.1769 59.8406 18.2578 59.7209L19.7072 57.5815C19.7604 57.501 19.8344 57.4412 19.9153 57.3975C19.9962 57.3537 20.0863 57.3307 20.1857 57.3307H21.9588C21.8617 57.3307 21.7692 57.3537 21.6883 57.3975C21.6074 57.4412 21.5334 57.501 21.4803 57.5815L20.0262 59.7209C19.9453 59.8406 19.8413 59.9326 19.7211 59.9901C19.6055 60.0545 19.4691 60.089 19.3258 60.089H22.0258C22.1691 60.089 22.3032 60.0545 22.4188 59.9901C22.539 59.9326 22.6476 59.8406 22.7239 59.7209L24.3513 57.333C23.2302 56.7211 22.7702 55.6491 22.7702 54.1814C22.7702 53.2681 23.2856 52.2237 23.3642 51.5519L23.3966 51.2828C23.4128 51.1447 23.3943 51.0067 23.3457 50.8802C23.3064 50.779 23.2302 50.6363 23.1423 50.5351L24.5316 51.9522C24.6403 52.0442 24.7189 52.1592 24.7651 52.2835C24.8159 52.4031 24.8344 52.5457 24.8183 52.6861L24.7766 53.0081C24.7096 53.574 23.9999 54.7864 25.3199 55.8975C25.3846 55.9504 25.5487 56.0701 25.7059 56.1667L26.6444 56.751V53.3049H27.9575V57.1421C27.9598 57.2847 28.0014 57.4182 28.0684 57.5355C28.1331 57.6459 28.2279 57.7517 28.3481 57.8276L29.6311 58.6397C29.7559 58.7179 29.89 58.7593 30.0217 58.7662C30.1558 58.7754 30.2945 58.7593 30.424 58.7041L32.7911 57.6804C32.6593 57.7379 32.5206 57.7563 32.3889 57.7471C32.2548 57.7379 32.1207 57.6965 32.0005 57.6206L29.2843 55.8975C30.6066 54.7864 29.8923 53.574 29.8253 53.0104L29.786 52.6884C29.7675 52.548 29.7883 52.4077 29.8345 52.2858C29.8854 52.1615 29.964 52.0465 30.0703 51.9545L31.4596 50.5374C31.374 50.6363 31.3001 50.779 31.2562 50.8825C31.2099 51.009 31.1914 51.147 31.2076 51.2851L31.2377 51.5542C31.3486 52.5089 32.3241 54.2481 31.5127 55.2166L33.9954 56.7855C34.118 56.8568 34.252 56.9051 34.3838 56.9143C34.5179 56.9236 34.6566 56.9051 34.7883 56.843L37.2618 55.7756C37.13 55.8285 36.9936 55.8492 36.8619 55.84C36.7278 55.8308 36.5937 55.7917 36.4712 55.7135L33.7851 54.0111C34.3699 52.8195 33.8775 50.9262 33.3112 49.8289L33.2257 49.6655C33.1632 49.5413 33.1332 49.401 33.1378 49.2652C33.1378 49.1364 33.1725 49.0007 33.2442 48.8765L34.1642 47.2247C34.0971 47.3443 34.0625 47.4824 34.0625 47.6135C34.0579 47.7469 34.0856 47.8826 34.1503 48.0092L34.4878 48.6648C34.6658 48.9892 34.7652 49.1824 34.9224 49.5666C36.4319 48.2116 36.7694 46.9049 35.8054 45.7915L35.5188 45.4556C35.4263 45.3452 35.3639 45.2233 35.3362 45.0945C35.3038 44.9633 35.3038 44.823 35.3431 44.6873L35.8355 42.8607C35.7985 42.9964 35.7985 43.1344 35.8263 43.2633C35.8586 43.3921 35.9187 43.5163 36.0135 43.6244L36.9589 44.7195C38.7967 46.7876 37.6848 49.4516 35.4911 51.4829C35.6113 51.8717 35.7176 52.6009 35.6298 52.9989L38.5424 54.8347C38.6626 54.9152 38.799 54.9566 38.9331 54.9658C39.0648 54.9773 39.2035 54.9566 39.3353 54.8991L41.4412 53.9858C41.321 54.0341 41.1869 54.0664 41.0505 54.0664C40.5073 54.0664 40.0681 53.627 40.0681 53.0909C40.0681 52.6539 40.3524 52.2789 40.7523 52.1592C48.7922 49.7253 56.194 43.4427 61.0531 43.4588C63.4156 43.4657 65.3296 44.8874 65.3296 46.6473C65.3296 46.9325 65.2788 47.2086 65.1863 47.4732C64.1507 50.3695 65.6602 53.1347 69.6408 54.2021C70.2765 54.3723 70.7458 54.9497 70.7458 55.6307C70.7458 55.7664 70.7273 55.8975 70.6949 56.0195C70.7851 56.0287 70.8775 56.031 70.9723 56.031C72.068 56.031 73.0389 55.4903 73.6261 54.6576C74.308 54.653 75.057 54.6116 75.8221 54.5287C75.9146 54.7151 75.9862 54.9244 76.0325 55.1545C76.1966 55.9896 75.9053 56.7395 75.3898 56.9051C74.4767 57.2019 73.3556 56.8453 72.4887 56.8545C70.8521 56.8729 69.5275 58.1957 69.5275 59.8314C69.5275 59.9579 69.5345 60.0821 69.5506 60.211C69.0351 60.5284 68.6953 61.0943 68.6953 61.7408C68.6953 62.0628 68.7809 62.3665 68.9265 62.6288C69.4304 62.0444 70.0893 61.5912 70.8359 61.329C70.9006 59.8958 72.0842 58.757 73.5359 58.757C73.7578 58.757 73.9774 58.7823 74.1832 58.8353C72.7106 59.0193 71.571 60.2708 71.571 61.7868C71.571 61.8926 71.5779 62.003 71.5895 62.1111C71.4069 62.3343 71.2959 62.6127 71.2959 62.9209C71.2959 63.3097 71.4716 63.6617 71.7467 63.8963C72.0241 63.2913 72.6945 62.7208 73.5613 62.4286C74.1439 62.2354 74.7171 62.1963 75.1933 62.2929C75.1147 62.0651 75.0778 61.8213 75.0778 61.5728C75.0778 60.2777 76.1272 59.2286 77.4287 59.2286C77.5489 59.2286 77.6668 59.2378 77.7824 59.2562C76.8762 59.3759 76.1781 60.1511 76.1781 61.0851C76.1781 61.704 76.4855 62.2538 76.9548 62.5919C76.9548 62.6219 76.9525 62.6587 76.9525 62.6909C76.9525 63.1993 77.186 63.6525 77.5512 63.9492C77.7176 63.1004 78.462 62.4608 79.3658 62.4608C80.1356 62.4608 80.7713 62.3642 81.2475 62.2055C82.052 61.9455 82.6391 61.2025 82.6391 60.3214C82.6391 59.7071 82.3594 59.1596 81.9156 58.7984C82.1352 57.8046 82.0959 56.1713 81.7561 54.814C81.8231 54.8048 81.8948 54.8002 81.9687 54.8002C82.5305 54.7979 83.0251 55.0878 83.3118 55.5203L83.3303 55.5111ZM42.3659 72.3644C42.3219 72.1482 42.3266 71.925 42.3728 71.7019C42.4653 71.2763 42.8467 70.9542 43.3044 70.9542C43.8314 70.9542 44.2545 71.3775 44.2545 71.8997C44.2545 72.1528 44.1574 72.3805 43.9979 72.5484C44.1759 72.5669 44.3585 72.5761 44.548 72.5761C45.0381 72.5761 45.5027 72.5139 45.9142 72.4035C46.5846 72.2264 47.077 71.6168 47.077 70.8921C47.077 70.0317 46.3719 69.3324 45.5051 69.3324C45.4588 69.3324 45.4103 69.3347 45.364 69.337C45.5813 69.245 45.8241 69.1943 46.0783 69.1943C47.0862 69.1943 47.9045 70.0064 47.9045 71.0094C47.9045 71.06 47.9022 71.1153 47.8976 71.1659C50.6184 71.1037 53.6836 68.6353 54.354 67.6944C53.501 67.8877 52.5786 67.9958 51.6124 67.9958C50.5167 67.9958 49.4718 67.8601 48.5264 67.6116C47.1879 67.2573 45.8726 67.0641 44.8601 67.0641C41.5221 67.0641 38.8198 69.2312 38.8198 71.8997C38.8198 74.1059 40.6529 76.036 43.1911 76.5513C48.9702 77.7291 55.7664 74.3106 61.5085 73.1305C62.944 71.7318 64.6038 70.5654 66.4299 69.6843C66.3768 69.4727 66.3467 69.2565 66.3467 69.0333V69.0195C58.7299 70.2664 51.8736 74.1565 45.683 74.122C43.947 74.1151 42.5878 73.4548 42.3682 72.3598L42.3659 72.3644ZM42.1879 58.3683C42.3034 58.3683 42.419 58.3775 42.53 58.389C41.3903 58.7156 40.468 59.5599 40.0427 60.6549C39.333 60.885 38.8221 61.5544 38.8221 62.3389C38.8221 62.7047 38.9331 63.0451 39.1249 63.3258C39.7422 62.6426 40.5512 62.1296 41.4689 61.8834C41.7325 60.5675 42.8305 59.5553 44.192 59.4127C43.0062 59.9073 42.1717 61.0759 42.1717 62.4378C42.1717 62.9186 42.2757 63.3764 42.4653 63.7882C42.6733 63.0382 43.3645 62.4884 44.1828 62.4884C44.3908 62.4884 44.5873 62.5229 44.7676 62.5874C45.0242 62.6794 45.2993 62.73 45.5813 62.73C46.899 62.73 47.9693 61.6626 47.9693 60.3467C47.9693 60.0821 47.9276 59.8337 47.849 59.5967C48.4755 59.7739 48.9332 60.3536 48.9332 61.0368C48.9332 61.3497 48.8384 61.6372 48.6743 61.8811C48.85 61.9133 49.0303 61.9271 49.2152 61.9271C50.7686 61.9271 52.0493 60.7654 52.2273 59.2654C53.0063 58.8468 53.6905 58.2808 54.2823 57.5723L54.6961 59.5806C54.7262 59.7232 54.7146 59.8613 54.6799 59.9901C54.6429 60.1143 54.5736 60.2363 54.4742 60.3398L56.1871 58.5868C56.2865 58.4856 56.3559 58.3614 56.3905 58.2348C56.4298 58.106 56.4368 57.968 56.4067 57.8299L55.9028 55.3753C55.8727 55.235 55.882 55.097 55.919 54.9704C55.9559 54.8416 56.0253 54.7174 56.1247 54.6162L57.4724 53.252C57.373 53.3555 57.3036 53.4774 57.2689 53.6017C57.232 53.7328 57.225 53.8708 57.2551 54.0088L57.759 56.4681C57.7891 56.6061 57.7798 56.7418 57.7451 56.8729C57.7082 56.9972 57.6434 57.1168 57.5463 57.218L59.0743 55.6353C59.1714 55.5341 59.2408 55.4144 59.2778 55.2856C59.3171 55.1591 59.324 55.0164 59.2916 54.8807L58.79 52.4307C58.76 52.2904 58.7692 52.1523 58.8062 52.0258C58.8432 51.8947 58.9125 51.7751 59.0119 51.6738L60.3596 50.3051C60.2602 50.4063 60.1908 50.5282 60.1562 50.657C60.1192 50.7836 60.1123 50.9239 60.1423 51.0619L60.6486 53.5188C60.6786 53.6569 60.667 53.7949 60.6301 53.9237C60.5931 54.0479 60.5283 54.1676 60.4313 54.2688L61.9592 52.6884C62.0586 52.5871 62.1257 52.4675 62.1627 52.3387C62.202 52.2099 62.2089 52.0718 62.1789 51.9315L61.9338 50.7329C61.6749 49.378 63.0827 47.8182 64.1969 47.6595C64.331 47.4018 64.405 47.1235 64.405 46.8336C64.405 45.4602 62.7591 44.3445 60.7271 44.3445C59.7355 44.3445 58.8339 44.6091 58.1705 45.0461C58.4363 45.826 58.4918 46.622 55.8866 46.9924C53.82 47.2868 52.0007 47.6848 50.6207 48.8488C48.4894 50.6478 48.6627 53.0518 47.4514 53.9605C47.9901 54.0917 48.6743 54.0917 49.4094 53.9329C49.8717 53.834 50.3017 53.6799 50.6785 53.4912C50.4519 53.9237 49.9318 54.3355 49.2499 54.6231C49.0257 55.4742 48.2675 56.284 47.2434 56.6636C46.5985 56.9005 45.9558 56.9259 45.4265 56.774L42.9322 56.0563C42.6248 55.9689 42.3058 55.9205 41.9729 55.9205C40.1351 55.9205 38.6187 57.3284 38.3945 59.1504C37.5276 59.2724 36.8619 60.0154 36.8619 60.9126C36.8619 61.2416 36.952 61.5498 37.1069 61.8121C37.7033 61.2071 38.4615 60.7608 39.3099 60.5307C39.6636 59.2816 40.8194 58.3614 42.1902 58.3614L42.1879 58.3683ZM28.9283 81.0004C29.0809 80.1907 29.1456 79.4062 29.1156 78.6493L28.3874 79.4982C28.2441 79.16 28.1493 78.953 28.0499 78.7828C27.969 78.647 27.8997 78.5527 27.8072 78.5343C27.7587 78.5573 27.6847 78.5987 27.6038 78.6171C27.5113 78.6378 27.3842 78.6309 27.3056 78.6309C27.2316 78.6309 27.1068 78.6378 27.012 78.6171C26.9334 78.5987 26.8617 78.5596 26.8109 78.5343C26.7138 78.5504 26.6468 78.6447 26.5682 78.7828C26.4711 78.9507 26.374 79.16 26.2307 79.4982L25.5002 78.6493C25.4724 79.4062 25.5349 80.1884 25.6874 81.0004C26.226 80.8831 26.7831 80.8417 27.3056 80.8417C27.8349 80.8417 28.3897 80.8831 28.9283 81.0004ZM29.2543 83.1836C29.3352 82.2634 28.2857 81.9367 27.3056 81.9367C26.3278 81.9367 25.2806 82.2634 25.3615 83.1836C25.4609 84.3039 26.515 83.7702 27.3056 83.7748C28.1031 83.7702 29.1549 84.3039 29.2543 83.1836ZM32.0514 76.5651C31.8595 76.6157 31.7555 76.7284 31.7323 76.9286C31.6168 78.0098 31.1776 78.4469 30.4725 78.6907C30.4633 79.7789 30.3107 80.6071 30.0148 81.6308C30.8516 83.3699 30.209 84.5846 29.5317 84.8445C28.8844 85.0953 28.0522 84.7594 27.3148 84.7594C26.5774 84.7594 25.7314 85.093 25.0841 84.8445C24.4045 84.5846 23.7665 83.3699 24.5987 81.6308C24.3051 80.6071 24.1502 79.7812 24.1433 78.6907C23.4382 78.4469 22.9944 78.0098 22.8811 76.9286C22.858 76.7261 22.754 76.6157 22.5644 76.5651C19.7858 75.8059 19.5223 72.3713 20.9278 71.3959C20.803 72.9372 20.6689 75.1066 23.8289 75.3965C23.778 77.2 24.5594 77.6831 25.3684 77.6831C26.0296 77.6854 26.4063 77.4738 26.5728 77.3887C27.1599 77.0781 26.7554 76.6019 26.6052 76.4593C26.2006 76.0866 25.9972 75.5506 26.0943 75.0215C26.1105 74.9225 26.1474 74.8765 26.2376 74.8765H27.3056H28.3782C28.4683 74.8765 28.5076 74.9225 28.5215 75.0215C28.6186 75.5506 28.4152 76.0866 28.0129 76.4593C27.8627 76.6042 27.4581 77.0781 28.0453 77.3887C28.2094 77.4761 28.5885 77.6854 29.2497 77.6831C30.0564 77.6831 30.8401 77.2 30.7892 75.3965C33.9469 75.1089 33.8128 72.9372 33.6903 71.3959C35.0958 72.3713 34.8299 75.8059 32.0537 76.5651H32.0514ZM32.9067 70.57C32.9067 71.3591 32.3264 72.2356 31.6653 72.2356H31.0597C31.2122 72.415 31.3047 72.6497 31.3047 72.905C31.3047 73.4894 30.8308 73.9633 30.2437 73.9633C29.6565 73.9633 29.1826 73.4894 29.1826 72.905C29.1826 72.6497 29.2751 72.415 29.4253 72.2356H28.792C28.5747 72.2356 28.4059 72.3253 28.2718 72.5761C28.2279 72.2356 28.184 71.8836 28.2626 71.649C28.3689 71.3315 28.6186 71.1406 28.8659 71.1406H31.6491C32.1623 71.1406 32.546 70.968 32.9043 70.5677L32.9067 70.57ZM32.5391 69.2588H31.5659C31.0828 69.2588 30.7499 69.0586 30.4679 68.7365L29.3583 67.2964C29.1757 67.0687 29.0301 66.9077 28.7943 66.8041H29.89C30.2182 66.8041 30.5118 66.9422 30.7407 67.2366L31.8965 68.6997C32.1554 69.0103 32.234 69.2174 32.5391 69.2611V69.2588ZM27.4674 66.8801L28.8867 68.8608C29.111 69.1874 29.3236 69.3669 29.6288 69.4934H28.3296C27.8303 69.4934 27.5298 69.2634 27.3102 68.9068L26.1937 67.2044C25.7683 66.5649 25.5996 66.4085 25.1095 66.2313H26.3162C26.7924 66.2313 27.2339 66.5396 27.4697 66.8801H27.4674ZM24.2519 67.2366L25.4077 68.6997C25.6666 69.0103 25.7452 69.2174 26.0504 69.2611H25.0795C24.594 69.2611 24.2588 69.0609 23.9768 68.7388L22.8672 67.2987C22.6846 67.071 22.5413 66.91 22.3032 66.8064H23.3989C23.7272 66.8064 24.0207 66.9445 24.2496 67.2389L24.2519 67.2366ZM23.5515 72.2379H22.9435C22.2847 72.2379 21.7022 71.3591 21.7022 70.5723C22.0628 70.9726 22.4419 71.1452 22.9597 71.1452H25.7429C25.9926 71.1452 26.2399 71.3384 26.3462 71.6536C26.4248 71.8882 26.3809 72.2379 26.337 72.5807C26.2029 72.3276 26.0342 72.2379 25.8169 72.2379H25.1835C25.3338 72.4173 25.4239 72.652 25.4239 72.9073C25.4239 73.4917 24.95 73.9655 24.3629 73.9655C23.778 73.9655 23.3041 73.4917 23.3041 72.9073C23.3041 72.652 23.3943 72.4173 23.5469 72.2379H23.5515ZM20.121 85.4358L20.4585 84.7778C20.5232 84.6536 20.551 84.5156 20.5487 84.3821C20.5464 84.251 20.5117 84.1153 20.4423 83.9934L21.367 85.6474C21.434 85.7716 21.4687 85.9051 21.471 86.0385C21.4756 86.1719 21.4479 86.31 21.3809 86.4365L21.3 86.5998C20.7313 87.6948 20.2019 89.7515 20.7891 90.9408C19.4206 90.4347 18.9698 89.2408 19.1155 88.2516C16.5357 85.8176 15.8884 83.3515 17.7285 81.2857L18.6716 80.1838C18.7687 80.0779 18.8311 79.9537 18.8566 79.8249C18.8889 79.6961 18.8889 79.558 18.8519 79.4223L19.3443 81.2489C19.379 81.3869 19.3813 81.5249 19.3512 81.6561C19.3212 81.7849 19.2611 81.9091 19.1686 82.015L18.8797 82.3531C17.918 83.4689 18.1746 84.9803 19.6818 86.3353C19.8413 85.9557 19.943 85.7578 20.121 85.4358ZM83.3303 92.2912C83.4297 92.0474 83.4875 91.7782 83.4875 91.4952C83.4875 90.3473 82.5536 89.4133 81.4001 89.4133H79.2895C79.1462 89.4156 79.0122 89.3788 78.8919 89.3167C78.7764 89.2546 78.6677 89.1626 78.5868 89.0475L77.5304 87.4924C77.6113 87.6074 77.7153 87.7017 77.8355 87.7616C77.9511 87.8237 78.0898 87.8605 78.2331 87.8582L81.014 87.8605C81.1574 87.8605 81.2937 87.895 81.4116 87.9571C81.5272 88.0192 81.6359 88.1112 81.7168 88.2263L80.4384 86.3652C80.3575 86.2455 80.2512 86.1558 80.131 86.096C80.0154 86.0339 79.8767 85.9971 79.7357 85.9971L76.9756 85.9994C76.8346 85.9994 76.6982 85.9649 76.5803 85.9028C76.4601 85.8407 76.3538 85.7486 76.2729 85.6336L75.0731 83.876C75.154 83.9957 75.2604 84.0854 75.3783 84.1452C75.4985 84.2073 75.6326 84.2441 75.7759 84.2441L78.5452 84.2418C78.6885 84.2418 78.8249 84.2763 78.9428 84.3384C79.063 84.3982 79.167 84.488 79.2479 84.6076L77.9719 82.7488C77.891 82.6292 77.7847 82.5395 77.6645 82.4773C77.5466 82.4129 77.4102 82.3807 77.2692 82.3807H75.0685C74.9252 82.3807 74.7911 82.3439 74.6709 82.2841C74.5553 82.2174 74.4467 82.13 74.3658 82.0103L72.8863 79.8525C75.8776 79.4982 78.2909 77.8856 78.7694 75.6633C79.3913 72.7808 76.5133 69.9834 72.3454 69.3738C71.645 69.2726 71.1087 68.6721 71.1087 67.9475C71.1087 67.3332 71.4994 66.8041 72.0472 66.6017C71.6034 66.4085 71.1064 66.3026 70.5793 66.3026C68.7346 66.3026 67.2413 67.6185 67.2413 69.2404C67.2413 69.5325 67.2922 69.8155 67.3823 70.08C65.3157 70.9703 63.4341 72.5439 61.9939 74.2439C63.5335 73.8367 65.1516 73.6159 66.8206 73.6159C66.8137 73.54 66.8091 73.4617 66.8091 73.3835C66.8091 72.139 67.8169 71.1337 69.0698 71.1337H69.1022C68.2492 71.504 67.8354 72.3207 67.8354 72.8613C67.8354 73.5032 68.3578 74.0231 69.0028 74.0231C69.2548 74.0231 69.4882 73.9471 69.6778 73.8091C69.6339 73.6665 69.6107 73.5078 69.6107 73.349C69.6107 72.4587 70.3343 71.7387 71.2312 71.7387C71.3098 71.7387 71.3907 71.7433 71.4647 71.7548C70.8475 72.04 70.4198 72.6681 70.4198 73.3881C70.4198 74.3865 71.2312 75.194 72.2321 75.194C72.3385 75.194 72.4425 75.1871 72.5442 75.171C72.5142 75.0629 72.5003 74.9548 72.5003 74.8397C72.5003 74.1243 73.0828 73.5469 73.7994 73.5469C74.5183 73.5469 75.1009 74.1243 75.1009 74.8397C75.1009 76.3949 73.3648 76.5398 72.1004 76.1786C68.4988 75.1434 65.1262 74.6833 61.8622 75.1342C57.6758 75.7231 50.8172 78.5389 43.5379 78.3043C41.9105 78.2537 40.1328 77.9845 38.3436 77.4968C38.5632 77.736 38.7042 77.9017 38.7967 78.042C39.5064 79.1416 39.7491 80.2896 39.1226 81.7343C39.1411 80.1194 37.8004 78.7874 36.6746 77.973C36.2215 77.6486 36.0389 77.3358 36.1152 76.9171L36.4481 75.0537C36.425 75.1917 36.4365 75.332 36.4781 75.4517C36.5197 75.5828 36.5914 75.7024 36.6931 75.8013L37.3935 76.4823C37.6594 74.5936 37.2294 72.8383 36.1013 71.2096C36.6006 69.9121 36.67 68.4766 36.3348 67.1331C36.203 68.1522 35.7014 68.5893 35.2252 68.8815C34.3399 69.4336 34.1942 70.3653 34.6519 70.9864C33.903 70.6114 32.872 69.2288 33.4684 68.4237C34.111 67.5495 35.8748 67.9613 36.0898 66.4683C34.9478 66.1071 33.7689 66.3601 33.4106 66.4568C32.7333 65.6861 31.8341 65.3019 30.7152 65.3088C29.8322 64.5106 28.6949 64.1793 27.3033 64.315C25.9186 64.1793 24.7836 64.5129 23.8982 65.3088C22.7794 65.3019 21.8802 65.6838 21.2029 66.4568C20.8423 66.3601 19.6679 66.1071 18.5214 66.4683C18.7387 67.9613 20.4978 67.5495 21.1428 68.4237C21.7392 69.2288 20.7082 70.6114 19.9592 70.9864C20.4192 70.3653 20.2713 69.4359 19.3859 68.8815C18.912 68.5893 18.4081 68.1522 18.2763 67.1331C17.9435 68.4766 18.0128 69.9121 18.5098 71.2096C17.3794 72.8383 16.9518 74.5959 17.2176 76.4823L17.9203 75.8013C18.0221 75.7024 18.0937 75.5828 18.1353 75.4517C18.1769 75.332 18.1862 75.1917 18.1584 75.0537L18.4913 76.9171C18.563 77.3358 18.385 77.6486 17.9319 77.973C16.8061 78.7897 15.4654 80.1194 15.4839 81.7343C14.8597 80.2919 15.1117 79.091 15.8121 78.042C13.6762 76.8941 12.0511 75.01 11.7506 74.6649C11.1057 73.9149 11.1912 72.9648 11.7737 72.1298C12.9041 70.524 13.1699 68.8125 11.7552 67.6415C11.7645 67.5541 11.7691 67.4667 11.7691 67.3816C11.7691 66.3164 11.0086 65.4261 9.99838 65.226C10.1856 65.5182 10.2966 65.8655 10.2966 66.2336C10.2966 66.6569 10.1556 67.048 9.91285 67.3632C10.114 67.6254 10.2319 67.9498 10.2319 68.3064C10.2319 68.7803 10.0169 69.2058 9.67707 69.4888C9.71174 69.3301 9.72561 69.1575 9.72561 68.9827C9.72561 67.8877 9.04599 66.9721 8.12134 66.719C7.97108 65.9231 7.27066 65.3203 6.42691 65.3203C5.93685 65.3203 5.49995 65.5228 5.18325 65.8448C5.83745 65.8954 6.36219 66.4062 6.43385 67.0503C6.12178 67.2849 5.86981 67.6047 5.70799 67.9843H5.75192C6.87999 67.9843 7.79309 68.893 7.79309 70.0156C7.79309 70.1421 7.78153 70.2687 7.75841 70.386C7.67288 69.9282 7.46484 69.5003 7.12503 69.1713C6.49164 68.5548 5.57161 68.4283 4.72555 68.748C4.40886 68.3524 3.9211 68.0993 3.37556 68.0993C2.75604 68.0993 2.21512 68.4214 1.9123 68.9068C2.53644 68.9344 3.08429 69.2473 3.4241 69.7189C2.54106 70.8484 2.5295 72.4081 3.43797 73.2915C4.05055 73.8873 4.93129 74.0254 5.75192 73.7447C5.80508 73.7263 5.86287 73.7148 5.92529 73.7148C6.22811 73.7148 6.47083 73.9587 6.47083 74.2577C6.47083 74.5545 6.2258 74.7983 5.92529 74.7983C5.79353 74.7983 5.67101 74.7523 5.57854 74.6741C5.3705 74.5016 5.10235 74.4003 4.81339 74.4003C4.15458 74.4003 3.62059 74.9295 3.62059 75.5897C3.62059 75.638 3.6229 75.6886 3.62984 75.7323C3.51888 75.7714 3.39867 75.7898 3.27385 75.7898C2.95022 75.7898 2.65895 75.6587 2.44397 75.4494C2.4093 75.5805 2.39311 75.7162 2.39311 75.8543C2.39311 76.6939 3.04037 77.3795 3.86794 77.4439C4.24011 78.3595 5.14165 79.0059 6.19575 79.0059C6.73667 79.0059 7.23598 78.8357 7.64514 78.5504C7.82545 78.4262 8.04043 78.3526 8.27391 78.3526C8.88187 78.3526 9.37193 78.8426 9.37193 79.4453C9.37193 79.9675 9.00669 80.4 8.51663 80.5127L7.66132 80.6968C7.52263 80.7313 7.38162 80.7221 7.25217 80.683C7.12271 80.6531 7.0002 80.584 6.89849 80.4874L8.85644 82.337C8.96277 82.4336 9.08298 82.5003 9.21243 82.5349C9.34188 82.5717 9.48058 82.5786 9.61928 82.5464L11.2235 82.1921C11.3622 82.1599 11.5033 82.1691 11.6304 82.2013C11.7575 82.2381 11.8847 82.3025 11.9864 82.4014L13.3294 83.6736C13.2254 83.577 13.1029 83.508 12.9711 83.4735C12.8463 83.4366 12.7053 83.4297 12.5643 83.462L10.967 83.8139C10.8259 83.8461 10.6873 83.8369 10.5601 83.8024C10.4307 83.7679 10.3058 83.7035 10.2041 83.6046L11.9979 85.2954C12.0997 85.3944 12.2245 85.4611 12.3516 85.4979C12.4811 85.5347 12.6221 85.5393 12.7608 85.5071L14.3651 85.1574C14.5061 85.1252 14.6448 85.1344 14.7742 85.1689C14.9037 85.2034 15.0262 85.2701 15.1302 85.3691L16.4733 86.6389C16.3692 86.5423 16.2467 86.4756 16.1173 86.4411C15.9878 86.4043 15.8491 86.3997 15.7081 86.4296L14.1085 86.7816C13.9675 86.8138 13.8288 86.8046 13.6993 86.77C13.5699 86.7355 13.4473 86.6711 13.3433 86.5722L15.1371 88.2631C15.2435 88.362 15.3637 88.4287 15.4931 88.4609C15.6226 88.4977 15.7613 88.5046 15.9023 88.4724L17.8394 88.0514C15.9578 89.1073 13.9536 90.3059 11.8315 91.6425C10.5763 92.4315 9.20549 92.5788 7.62665 91.9784C6.77828 91.6563 5.86056 91.6057 5.28034 91.7023C4.52444 91.8311 3.88412 92.2866 3.51194 92.9192C3.80321 92.8042 4.12453 92.7375 4.45971 92.7375C5.16476 92.7375 5.80046 93.0205 6.26279 93.4783C5.53 93.1723 4.6169 93.1424 3.72924 93.4645C2.14808 94.0373 1.22343 95.5234 1.58404 96.8554C0.992266 97.0808 0.578484 97.6513 0.578484 98.3162C0.578484 98.7556 0.758791 99.1536 1.05237 99.4365C1.20725 98.7372 1.82214 98.2127 2.56649 98.1851C2.87625 98.3898 3.23686 98.5324 3.6229 98.6084C3.73848 98.4059 3.88874 98.2265 4.0598 98.0723C4.04131 97.9458 4.03206 97.817 4.03206 97.6859C4.03206 96.2481 5.20175 95.0817 6.64652 95.0817C6.76672 95.0817 6.8823 95.0886 7.0002 95.1047C5.85132 95.3785 4.99832 96.4068 4.99832 97.6352C4.99832 97.7917 5.01219 97.9435 5.03993 98.0907C4.42273 98.3277 3.98583 98.9212 3.98583 99.6206C3.98583 100.021 4.12915 100.387 4.37187 100.672C4.81571 99.8092 5.68026 99.1973 6.69737 99.1007C7.07879 99.2111 7.48333 99.2732 7.90173 99.2732C8.16526 99.2732 8.42185 99.2502 8.6692 99.2065C8.44497 98.8798 8.3132 98.4864 8.3132 98.0608C8.3132 96.9428 9.22168 96.0387 10.3474 96.0387C10.4445 96.0387 10.537 96.0456 10.6364 96.0571C9.56149 96.5103 8.90267 97.4397 9.12921 98.2863C9.29102 98.8867 9.85737 99.3008 10.5925 99.4388C10.5832 99.8874 10.4584 100.308 10.2457 100.676C11.1889 100.61 11.9956 100.044 12.3979 99.241C13.5098 98.797 14.194 97.8492 13.9651 96.9888C13.8842 96.6805 13.6901 96.4206 13.4288 96.225C13.4265 96.1951 13.4242 96.1629 13.4242 96.1353C13.4242 95.5441 13.9097 95.061 14.5014 95.061C15.1002 95.061 15.5833 95.5441 15.5833 96.1353C15.5833 96.416 15.477 96.6713 15.299 96.8623H17.5574C17.6984 96.8623 17.8348 96.8255 17.9527 96.7634C18.0729 96.7012 18.1769 96.6092 18.2578 96.4919L19.7072 94.3525C19.7604 94.2719 19.8344 94.2121 19.9153 94.1684C19.9962 94.127 20.0863 94.1017 20.1857 94.1017H21.9588C21.8617 94.1017 21.7692 94.127 21.6883 94.1684C21.6074 94.2121 21.5334 94.2719 21.4803 94.3525L20.0262 96.4942C19.9453 96.6092 19.8413 96.7035 19.7211 96.7634C19.6055 96.8255 19.4691 96.8623 19.3258 96.8623H22.0258C22.1691 96.8623 22.3032 96.8255 22.4188 96.7634C22.539 96.7012 22.6476 96.6092 22.7239 96.4919L24.3513 94.104C23.2302 93.4921 22.7702 92.4223 22.7702 90.9523C22.7702 90.039 23.2856 88.9946 23.3642 88.3229L23.3966 88.056C23.4128 87.9134 23.3943 87.7777 23.3457 87.6534C23.3064 87.5522 23.2302 87.405 23.1423 87.3061L24.5316 88.7232C24.6403 88.8152 24.7189 88.9325 24.7651 89.0544C24.8159 89.1787 24.8344 89.3167 24.8183 89.4593L24.7766 89.7814C24.7096 90.3427 23.9999 91.5574 25.3199 92.6685C25.3846 92.7237 25.5487 92.841 25.7059 92.9376L26.6444 93.5243V90.0781H27.9575V93.9131C27.9598 94.0557 28.0014 94.1891 28.0684 94.3064C28.1331 94.4215 28.2279 94.525 28.3481 94.5986L29.6311 95.4107C29.7559 95.4866 29.89 95.5303 30.0217 95.5395C30.1558 95.5487 30.2945 95.5303 30.424 95.4751L32.7911 94.4514C32.6593 94.5089 32.5206 94.5296 32.3889 94.5158C32.2548 94.5066 32.1207 94.4652 32.0005 94.3916L29.2843 92.6685C30.6066 91.5574 29.8923 90.345 29.8253 89.7814L29.786 89.4593C29.7675 89.3144 29.7883 89.1764 29.8345 89.0544C29.8854 88.9302 29.964 88.8152 30.0703 88.7232L31.4596 87.3061C31.374 87.405 31.3001 87.5499 31.2562 87.6534C31.2099 87.7777 31.1914 87.9134 31.2076 88.056L31.2377 88.3229C31.3486 89.2799 32.3241 91.0167 31.5127 91.9875L33.9954 93.5542C34.118 93.6301 34.252 93.6738 34.3838 93.683C34.5179 93.6922 34.6566 93.6738 34.7883 93.614L37.2618 92.5443C37.13 92.5995 36.9936 92.6202 36.8619 92.6087C36.7278 92.5995 36.5937 92.5581 36.4712 92.4799L33.7851 90.7798C34.3699 89.5881 33.8775 87.6925 33.3112 86.5952L33.2257 86.4319C33.1632 86.3054 33.1332 86.1673 33.1378 86.0339C33.1378 85.9005 33.1725 85.767 33.2442 85.6451L34.1642 83.9911C34.0971 84.113 34.0625 84.2487 34.0625 84.3798C34.0579 84.5133 34.0856 84.649 34.1503 84.7755L34.4878 85.4335C34.6658 85.7555 34.7652 85.9511 34.9224 86.333C36.4319 84.978 36.7694 83.6713 35.8054 82.5579L35.5188 82.2197C35.4263 82.1116 35.3639 81.9896 35.3362 81.8608C35.3038 81.7297 35.3038 81.5894 35.3431 81.4536L35.8355 79.627C35.7985 79.7628 35.7985 79.9008 35.8263 80.0296C35.8586 80.1585 35.9187 80.2827 36.0135 80.3885L36.9589 81.4904C38.7967 83.5563 37.6848 86.2202 35.4911 88.2539C35.6113 88.6426 35.7176 89.3719 35.6298 89.7676L38.5424 91.6057C38.6626 91.6839 38.799 91.7253 38.9331 91.7345C39.0648 91.746 39.2035 91.7253 39.3353 91.6678L41.4412 90.7545C41.321 90.8051 41.1869 90.835 41.0505 90.835C40.5073 90.835 40.0681 90.3979 40.0681 89.8596C40.0681 89.4225 40.3524 89.0475 40.7523 88.9279C48.7922 86.4917 56.194 80.2114 61.0531 80.2252C63.4156 80.2344 65.3296 81.6561 65.3296 83.4182C65.3296 83.7012 65.2788 83.9796 65.1863 84.2441C64.1507 87.1404 65.6602 89.9056 69.6408 90.973C70.2765 91.1433 70.7458 91.7207 70.7458 92.4039C70.7458 92.5374 70.7273 92.6685 70.6949 92.7881C70.7851 92.7973 70.8775 92.8019 70.9723 92.8019C72.068 92.8019 73.0389 92.259 73.6261 91.4285C74.308 91.4239 75.057 91.3825 75.8221 91.302C75.9146 91.486 75.9862 91.6977 76.0325 91.9254C76.1966 92.7605 75.9053 93.5105 75.3898 93.6761C74.4767 93.9729 73.3556 93.6186 72.4887 93.6255C70.8521 93.6439 69.5275 94.9667 69.5275 96.5977C69.5275 96.7265 69.5345 96.8531 69.5506 96.9796C69.0351 97.2971 68.6953 97.8653 68.6953 98.5094C68.6953 98.8315 68.7809 99.1352 68.9265 99.3974C69.4304 98.8131 70.0893 98.3599 70.8359 98.0976C70.9006 96.6667 72.0842 95.5257 73.5359 95.5257C73.7578 95.5257 73.9774 95.5533 74.1832 95.6039C72.7106 95.788 71.571 97.0394 71.571 98.5554C71.571 98.6636 71.5779 98.774 71.5895 98.8821C71.4069 99.1006 71.2959 99.3836 71.2959 99.6896C71.2959 100.081 71.4716 100.43 71.7467 100.665C72.0241 100.06 72.6945 99.4894 73.5613 99.1973C74.1439 99.004 74.7171 98.9649 75.1933 99.0615C75.1147 98.8338 75.0778 98.5899 75.0778 98.3415C75.0778 97.0463 76.1272 95.9973 77.4287 95.9973C77.5489 95.9973 77.6668 96.0065 77.7824 96.0249C76.8762 96.1491 76.1781 96.9198 76.1781 97.8538C76.1781 98.4749 76.4855 99.0224 76.9548 99.3606C76.9548 99.3928 76.9525 99.4273 76.9525 99.4595C76.9525 99.9679 77.186 100.421 77.5512 100.718C77.7176 99.869 78.462 99.2295 79.3658 99.2295C80.1356 99.2295 80.7713 99.1329 81.2475 98.9764C82.052 98.7142 82.6391 97.9757 82.6391 97.09C82.6391 96.4758 82.3594 95.9283 81.9156 95.5671C82.1352 94.5733 82.0959 92.94 81.7561 91.5827C81.8231 91.5735 81.8948 91.5689 81.9687 91.5689C82.5305 91.5689 83.0251 91.8541 83.3118 92.2912H83.3303ZM42.3659 109.145C42.3219 108.926 42.3266 108.705 42.3728 108.482C42.4653 108.054 42.8467 107.734 43.3044 107.734C43.8314 107.734 44.2545 108.158 44.2545 108.682C44.2545 108.933 44.1574 109.158 43.9979 109.329C44.1759 109.347 44.3585 109.356 44.548 109.356C45.0381 109.356 45.5027 109.296 45.9142 109.186C46.5846 109.007 47.077 108.399 47.077 107.675C47.077 106.81 46.3719 106.113 45.5051 106.113C45.4588 106.113 45.4103 106.113 45.364 106.117C45.5813 106.025 45.8241 105.975 46.0783 105.975C47.0862 105.975 47.9045 106.787 47.9045 107.79C47.9045 107.84 47.9022 107.895 47.8976 107.944C50.6184 107.886 53.6836 105.415 54.354 104.475C53.501 104.668 52.5786 104.776 51.6124 104.776C50.5167 104.776 49.4718 104.643 48.5264 104.392C47.1879 104.04 45.8726 103.844 44.8601 103.844C41.5221 103.844 38.8198 106.011 38.8198 108.682C38.8198 110.888 40.6529 112.818 43.1911 113.334C48.9702 114.507 55.7664 111.093 61.5085 109.908C62.944 108.512 64.6038 107.346 66.4299 106.462C66.3768 106.253 66.3467 106.034 66.3467 105.811V105.797C58.7299 107.044 51.8736 110.934 45.683 110.902C43.947 110.895 42.5878 110.23 42.3682 109.14L42.3659 109.145ZM42.1879 95.1507C42.3034 95.1507 42.419 95.1576 42.53 95.1691C41.3903 95.4958 40.468 96.3424 40.0427 97.4351C39.333 97.6675 38.8221 98.3346 38.8221 99.1191C38.8221 99.4848 38.9331 99.8253 39.1249 100.106C39.7422 99.4227 40.5512 98.9097 41.4689 98.6636C41.7325 97.3477 42.8305 96.3355 44.192 96.1928C43.0062 96.6874 42.1717 97.8561 42.1717 99.218C42.1717 99.7011 42.2757 100.157 42.4653 100.568C42.6733 99.8184 43.3645 99.2686 44.1828 99.2686C44.3908 99.2686 44.5873 99.3031 44.7676 99.3675C45.0242 99.4595 45.2993 99.5078 45.5813 99.5078C46.899 99.5078 47.9693 98.4427 47.9693 97.1291C47.9693 96.8669 47.9276 96.6161 47.849 96.3769C48.4755 96.5586 48.9332 97.136 48.9332 97.8193C48.9332 98.1321 48.8384 98.4197 48.6743 98.6636C48.85 98.6958 49.0303 98.7096 49.2152 98.7096C50.7686 98.7096 52.0493 97.5478 52.2273 96.0525C53.0063 95.6292 53.6905 95.0633 54.2823 94.3547L54.6961 96.3654C54.7262 96.5057 54.7146 96.6437 54.6799 96.7726C54.6429 96.8968 54.5736 97.0233 54.4742 97.1222L56.1871 95.3716C56.2865 95.2703 56.3559 95.1484 56.3905 95.0196C56.4298 94.8908 56.4368 94.7527 56.4067 94.6147L55.9028 92.1601C55.8727 92.0221 55.882 91.8817 55.919 91.7552C55.9559 91.6264 56.0253 91.5045 56.1247 91.4032L57.4724 90.0344C57.373 90.1357 57.3036 90.2576 57.2689 90.3864C57.232 90.5152 57.225 90.6533 57.2551 90.7936L57.759 93.2505C57.7891 93.3885 57.7798 93.5266 57.7451 93.6554C57.7082 93.7819 57.6434 93.8993 57.5463 94.0028L59.0743 92.4223C59.1714 92.3211 59.2408 92.1992 59.2778 92.0727C59.3171 91.9438 59.324 91.8035 59.2916 91.6655L58.79 89.2155C58.76 89.0774 58.7692 88.9371 58.8062 88.8106C58.8432 88.6818 58.9125 88.5598 59.0119 88.4586L60.3596 87.0921C60.2602 87.1933 60.1908 87.3153 60.1562 87.4441C60.1192 87.5729 60.1123 87.7109 60.1423 87.849L60.6486 90.3059C60.6786 90.4462 60.667 90.5843 60.6301 90.7108C60.5931 90.8373 60.5283 90.9546 60.4313 91.0582L61.9592 89.4777C62.0586 89.3765 62.1257 89.2546 62.1627 89.1258C62.202 88.9969 62.2089 88.8589 62.1789 88.7186L61.9338 87.52C61.6749 86.165 63.0827 84.6053 64.1969 84.4466C64.331 84.1889 64.405 83.9105 64.405 83.623C64.405 82.2473 62.7591 81.1316 60.7271 81.1316C59.7355 81.1316 58.8339 81.3961 58.1705 81.8332C58.4363 82.6154 58.4918 83.4113 55.8866 83.7817C53.82 84.0716 52.0007 84.4719 50.6207 85.6405C48.4894 87.4372 48.6627 89.8412 47.4514 90.7499C47.9901 90.881 48.6743 90.881 49.4094 90.7246C49.8717 90.6257 50.3017 90.4715 50.6785 90.2852C50.4519 90.7177 49.9318 91.1272 49.2499 91.4193C49.0257 92.2682 48.2675 93.078 47.2434 93.4553C46.5985 93.6922 45.9558 93.7175 45.4265 93.5657L42.9322 92.8479C42.6248 92.7605 42.3058 92.7145 41.9729 92.7145C40.1351 92.7145 38.6187 94.1224 38.3945 95.9444C37.5276 96.0663 36.8619 96.8071 36.8619 97.702C36.8619 98.0309 36.952 98.3369 37.1069 98.6014C37.7033 97.9964 38.4615 97.5501 39.3099 97.3201C39.6636 96.0709 40.8194 95.153 42.1902 95.153L42.1879 95.1507ZM28.9283 117.783C29.0809 116.973 29.1456 116.186 29.1156 115.429L28.3874 116.278C28.2441 115.94 28.1493 115.733 28.0499 115.565C27.969 115.427 27.8997 115.333 27.8072 115.314C27.7587 115.337 27.6847 115.377 27.6038 115.397C27.5113 115.418 27.3842 115.411 27.3056 115.411C27.2316 115.411 27.1068 115.418 27.012 115.397C26.9334 115.379 26.8617 115.34 26.8109 115.314C26.7138 115.331 26.6468 115.425 26.5682 115.565C26.4711 115.733 26.374 115.938 26.2307 116.278L25.5002 115.429C25.4724 116.186 25.5349 116.971 25.6874 117.783C26.226 117.663 26.7831 117.624 27.3056 117.624C27.8349 117.624 28.3897 117.666 28.9283 117.783ZM29.2543 119.964C29.3352 119.044 28.2857 118.717 27.3056 118.717C26.3278 118.717 25.2806 119.044 25.3615 119.964C25.4609 121.084 26.515 120.55 27.3056 120.555C28.1031 120.55 29.1549 121.084 29.2543 119.964ZM32.0514 113.343C31.8595 113.396 31.7555 113.506 31.7323 113.709C31.6168 114.79 31.1776 115.227 30.4725 115.471C30.4633 116.561 30.3107 117.387 30.0148 118.411C30.8516 120.15 30.209 121.365 29.5317 121.625C28.8844 121.875 28.0522 121.54 27.3148 121.54C26.5774 121.54 25.7314 121.875 25.0841 121.625C24.4045 121.365 23.7665 120.15 24.5987 118.411C24.3051 117.387 24.1502 116.561 24.1433 115.471C23.4382 115.227 22.9944 114.79 22.8811 113.709C22.858 113.506 22.754 113.396 22.5644 113.343C19.7858 112.586 19.5223 109.151 20.9278 108.178C20.803 109.715 20.6689 111.887 23.8289 112.174C23.778 113.98 24.5594 114.461 25.3684 114.461C26.0296 114.461 26.4063 114.249 26.5728 114.164C27.1599 113.854 26.7554 113.38 26.6052 113.239C26.2006 112.864 25.9972 112.331 26.0943 111.799C26.1105 111.703 26.1474 111.654 26.2376 111.654H27.3056H28.3782C28.4683 111.654 28.5076 111.703 28.5215 111.799C28.6186 112.331 28.4152 112.864 28.0129 113.239C27.8627 113.38 27.4581 113.854 28.0453 114.164C28.2094 114.252 28.5885 114.461 29.2497 114.461C30.0564 114.461 30.8401 113.978 30.7892 112.174C33.9469 111.887 33.8128 109.715 33.6903 108.178C35.0958 109.151 34.8299 112.586 32.0537 113.343H32.0514ZM32.9067 107.35C32.9067 108.142 32.3264 109.018 31.6653 109.018H31.0597C31.2122 109.2 31.3047 109.432 31.3047 109.69C31.3047 110.272 30.8308 110.746 30.2437 110.746C29.6565 110.746 29.1826 110.272 29.1826 109.69C29.1826 109.432 29.2751 109.2 29.4253 109.018H28.792C28.5747 109.018 28.4059 109.105 28.2718 109.359C28.2279 109.018 28.184 108.668 28.2626 108.434C28.3689 108.116 28.6186 107.925 28.8659 107.925H31.6491C32.1623 107.925 32.546 107.753 32.9043 107.35H32.9067ZM32.5391 106.039H31.5659C31.0828 106.039 30.7499 105.843 30.4679 105.517L29.3583 104.077C29.1757 103.849 29.0301 103.688 28.7943 103.582H29.89C30.2182 103.582 30.5118 103.725 30.7407 104.017L31.8965 105.478C32.1554 105.788 32.234 105.995 32.5391 106.039ZM27.4674 103.66L28.8867 105.643C29.111 105.968 29.3236 106.149 29.6288 106.274H28.3296C27.8303 106.274 27.5298 106.046 27.3102 105.687L26.1937 103.985C25.7683 103.345 25.5996 103.186 25.1095 103.014H26.3162C26.7924 103.014 27.2339 103.322 27.4697 103.66H27.4674ZM24.2519 104.017L25.4077 105.478C25.6666 105.788 25.7452 105.995 26.0504 106.039H25.0795C24.594 106.039 24.2588 105.843 23.9768 105.517L22.8672 104.077C22.6846 103.849 22.5413 103.688 22.3032 103.582H23.3989C23.7272 103.582 24.0207 103.725 24.2496 104.017H24.2519ZM23.5515 109.018H22.9435C22.2847 109.018 21.7022 108.139 21.7022 107.35C22.0628 107.753 22.4419 107.925 22.9597 107.925H25.7429C25.9926 107.925 26.2399 108.119 26.3462 108.434C26.4248 108.668 26.3809 109.018 26.337 109.359C26.2029 109.105 26.0342 109.018 25.8169 109.018H25.1835C25.3338 109.2 25.4239 109.432 25.4239 109.69C25.4239 110.272 24.95 110.746 24.3629 110.746C23.778 110.746 23.3041 110.272 23.3041 109.69C23.3041 109.432 23.3943 109.2 23.5469 109.018H23.5515ZM20.121 122.216L20.4585 121.558C20.5232 121.434 20.551 121.296 20.5487 121.162C20.5464 121.031 20.5117 120.895 20.4423 120.774L21.367 122.428C21.434 122.554 21.4687 122.688 21.471 122.821C21.4756 122.954 21.4479 123.09 21.3809 123.219L21.3 123.382C20.7313 124.48 20.2019 126.534 20.7891 127.723C19.4206 127.217 18.9698 126.023 19.1155 125.032C16.5357 122.6 15.8884 120.136 17.7285 118.068L18.6716 116.969C18.7687 116.863 18.8311 116.736 18.8566 116.607C18.8889 116.479 18.8889 116.34 18.8519 116.205L19.3443 118.031C19.379 118.169 19.3813 118.307 19.3512 118.436C19.3212 118.567 19.2611 118.694 19.1686 118.8L18.8797 119.136C17.918 120.251 18.1746 121.763 19.6818 123.118C19.8413 122.738 19.943 122.54 20.121 122.218V122.216ZM83.3303 129.071C83.4297 128.828 83.4875 128.558 83.4875 128.275C83.4875 127.127 82.5536 126.196 81.4001 126.196H79.2895C79.1462 126.196 79.0122 126.161 78.8919 126.099C78.7764 126.039 78.6677 125.945 78.5868 125.83L77.5304 124.275C77.6113 124.392 77.7153 124.484 77.8355 124.544C77.9511 124.608 78.0898 124.645 78.2331 124.641L81.014 124.643C81.1574 124.643 81.2937 124.677 81.4116 124.74C81.5272 124.799 81.6359 124.891 81.7168 125.009L80.4384 123.145C80.3575 123.03 80.2512 122.938 80.131 122.876C80.0154 122.816 79.8767 122.78 79.7357 122.78L76.9756 122.782C76.8346 122.782 76.6982 122.745 76.5803 122.685C76.4601 122.623 76.3538 122.531 76.2729 122.414L75.0731 120.658C75.154 120.778 75.2604 120.868 75.3783 120.928C75.4985 120.99 75.6326 121.027 75.7759 121.024H78.5452C78.6885 121.022 78.8249 121.059 78.9428 121.121C79.063 121.181 79.167 121.27 79.2479 121.39L77.9696 119.527C77.8887 119.412 77.7824 119.317 77.6622 119.258C77.5466 119.195 77.4079 119.161 77.2669 119.161H75.0662C74.9229 119.161 74.7888 119.124 74.6686 119.062C74.553 119.002 74.4444 118.912 74.3635 118.793L72.884 116.63C75.8753 116.276 78.2886 114.663 78.7671 112.441C79.389 109.556 76.511 106.764 72.3431 106.154C71.6427 106.053 71.1064 105.452 71.1064 104.728C71.1064 104.109 71.497 103.582 72.0449 103.377C71.6011 103.189 71.1041 103.08 70.577 103.08C68.7323 103.08 67.239 104.396 67.239 106.018C67.239 106.31 67.2899 106.593 67.38 106.86C65.3134 107.748 63.4318 109.322 61.9916 111.022C63.5312 110.615 65.1493 110.396 66.8183 110.396C66.8114 110.318 66.8067 110.24 66.8067 110.161C66.8067 108.917 67.8146 107.912 69.0675 107.912H69.0999C68.2469 108.284 67.8331 109.099 67.8331 109.639C67.8331 110.281 68.3555 110.801 69.0005 110.801C69.2524 110.801 69.4859 110.723 69.6755 110.589C69.6316 110.442 69.6084 110.288 69.6084 110.127C69.6084 109.237 70.332 108.517 71.2289 108.517C71.3075 108.517 71.3884 108.521 71.4624 108.533C70.8452 108.82 70.4175 109.446 70.4175 110.166C70.4175 111.164 71.2289 111.972 72.2298 111.972C72.3362 111.972 72.4402 111.965 72.5419 111.944C72.5118 111.841 72.498 111.73 72.498 111.618C72.498 110.902 73.0805 110.322 73.7971 110.322C74.516 110.322 75.0986 110.902 75.0986 111.618C75.0986 113.173 73.3625 113.315 72.0981 112.954C68.4965 111.921 65.1239 111.459 61.8598 111.912C57.6735 112.496 50.8149 115.314 43.5355 115.08C41.9082 115.029 40.1305 114.76 38.3413 114.272C38.5609 114.509 38.7019 114.677 38.7944 114.818C39.5041 115.917 39.7468 117.067 39.1203 118.51C39.1388 116.895 37.7981 115.565 36.6723 114.751C36.2192 114.424 36.0366 114.111 36.1129 113.69L36.4458 111.827C36.4226 111.965 36.4342 112.103 36.4758 112.227C36.5174 112.356 36.5891 112.473 36.6908 112.575L37.3912 113.256C37.6571 111.367 37.2271 109.612 36.099 107.985C36.5983 106.685 36.6677 105.252 36.3325 103.906C36.2007 104.925 35.6991 105.363 35.2229 105.657C34.3376 106.207 34.1919 107.139 34.6496 107.762C33.9007 107.382 32.8697 106.002 33.4661 105.197C34.1087 104.327 35.8725 104.737 36.0875 103.242C34.9455 102.88 33.7666 103.136 33.4083 103.232C32.731 102.459 31.8318 102.075 30.7129 102.082C29.8299 101.282 28.6926 100.953 27.3009 101.091C25.9163 100.953 24.7813 101.284 23.8959 102.082C22.7771 102.075 21.8779 102.457 21.2006 103.232C20.8399 103.136 19.6656 102.88 18.5191 103.242C18.7364 104.737 20.4955 104.327 21.1405 105.197C21.7369 106.002 20.7059 107.382 19.9569 107.762C20.4169 107.139 20.269 106.207 19.3836 105.657C18.9097 105.36 18.4058 104.923 18.274 103.906C17.9412 105.252 18.0105 106.685 18.5075 107.985C17.3771 109.612 16.9495 111.367 17.2153 113.256L17.918 112.575C18.0197 112.476 18.0914 112.356 18.133 112.227C18.1746 112.103 18.1839 111.965 18.1561 111.827L18.489 113.69C18.5607 114.109 18.3827 114.422 17.9296 114.751C16.8038 115.565 15.4631 116.895 15.4816 118.51C14.8574 117.07 15.1094 115.869 15.8098 114.818C13.6739 113.67 12.0488 111.786 11.7483 111.44C11.1033 110.693 11.1889 109.74 11.7714 108.905C12.9018 107.297 13.1676 105.588 11.7529 104.415C11.7622 104.33 11.7668 104.242 11.7668 104.155C11.7668 103.09 11.0063 102.202 9.99607 102.002C10.1833 102.291 10.2943 102.639 10.2943 103.009C10.2943 103.432 10.1533 103.824 9.91054 104.136C10.1117 104.399 10.2295 104.725 10.2295 105.08C10.2295 105.556 10.0146 105.979 9.67476 106.262C9.70943 106.099 9.7233 105.928 9.7233 105.756C9.7233 104.661 9.04368 103.743 8.11903 103.49C7.96877 102.694 7.26835 102.091 6.4246 102.091C5.93453 102.091 5.49764 102.294 5.18094 102.618C5.83513 102.666 6.35988 103.179 6.43154 103.824C6.11947 104.056 5.8675 104.376 5.70568 104.755H5.7496C6.87768 104.755 7.79078 105.664 7.79078 106.787C7.79078 106.913 7.77922 107.04 7.7561 107.162C7.67057 106.699 7.46252 106.274 7.12271 105.945C6.48933 105.33 5.5693 105.202 4.72324 105.521C4.40655 105.126 3.91879 104.873 3.37325 104.873C2.75373 104.873 2.21281 105.195 1.90998 105.68C2.53412 105.708 3.08198 106.021 3.42179 106.492C2.53875 107.622 2.52719 109.184 3.43566 110.065C4.04824 110.661 4.92897 110.799 5.7496 110.518C5.80277 110.5 5.86056 110.488 5.92298 110.488C6.2258 110.488 6.46852 110.732 6.46852 111.031C6.46852 111.328 6.22349 111.572 5.92298 111.572C5.79121 111.572 5.6687 111.526 5.57623 111.447C5.36818 111.275 5.10004 111.174 4.81108 111.174C4.15227 111.174 3.61828 111.705 3.61828 112.361C3.61828 112.409 3.62059 112.46 3.62753 112.506C3.51657 112.542 3.39636 112.561 3.27153 112.561C2.94791 112.561 2.65664 112.43 2.44166 112.22C2.40698 112.349 2.3908 112.485 2.3908 112.625C2.3908 113.463 3.03806 114.148 3.86562 114.21C4.2378 115.128 5.13933 115.772 6.19344 115.772C6.73436 115.772 7.23367 115.604 7.64283 115.317C7.82314 115.19 8.03812 115.119 8.2716 115.119C8.87955 115.119 9.36962 115.609 9.36962 116.212C9.36962 116.734 9.00438 117.166 8.51432 117.277L7.65901 117.465C7.52031 117.498 7.3793 117.491 7.24985 117.454C7.1204 117.419 6.99789 117.355 6.89617 117.256L8.85413 119.106C8.96046 119.202 9.08067 119.271 9.21012 119.304C9.33957 119.34 9.47827 119.347 9.61696 119.317L11.2212 118.963C11.3599 118.931 11.5009 118.94 11.6281 118.975C11.7552 119.009 11.8824 119.073 11.9841 119.172L13.3271 120.445C13.2231 120.346 13.1006 120.279 12.9688 120.247C12.844 120.21 12.703 120.203 12.562 120.233L10.9646 120.585C10.8236 120.617 10.6849 120.61 10.5578 120.573C10.4283 120.539 10.3035 120.474 10.2018 120.378L11.9956 122.069C12.0973 122.168 12.2222 122.234 12.3493 122.269C12.4788 122.306 12.6198 122.313 12.7585 122.28L14.3627 121.931C14.5038 121.898 14.6425 121.908 14.7719 121.942C14.9014 121.977 15.0239 122.043 15.1279 122.14L16.471 123.412C16.3669 123.316 16.2444 123.247 16.115 123.212C15.9855 123.175 15.8468 123.168 15.7058 123.201L14.1062 123.553C13.9651 123.585 13.8264 123.576 13.697 123.541C13.5675 123.507 13.445 123.442 13.341 123.343L15.1348 125.036C15.2412 125.135 15.3614 125.2 15.4908 125.234C15.6203 125.271 15.759 125.278 15.9 125.246L17.8371 124.822C15.9555 125.881 13.9513 127.079 11.8292 128.416C10.574 129.203 9.20318 129.352 7.62434 128.752C6.77597 128.43 5.85825 128.377 5.27803 128.476C4.52213 128.604 3.88181 129.06 3.50963 129.693C3.8009 129.573 4.12222 129.511 4.4574 129.511C5.16245 129.511 5.79815 129.794 6.26048 130.252C5.52769 129.946 4.61459 129.913 3.72693 130.235C2.14577 130.811 1.22112 132.297 1.58173 133.626C0.989954 133.854 0.576172 134.422 0.576172 135.089C0.576172 135.529 0.756479 135.925 1.05006 136.21C1.20494 135.513 1.81983 134.986 2.56418 134.958C2.87393 135.161 3.23455 135.306 3.62059 135.382C3.73617 135.179 3.88643 134.997 4.05749 134.846C4.039 134.721 4.02975 134.59 4.02975 134.461C4.02975 133.024 5.19944 131.857 6.64421 131.857C6.76441 131.857 6.87999 131.864 6.99789 131.88C5.849 132.154 4.99601 133.182 4.99601 134.413C4.99601 134.567 5.00988 134.721 5.03762 134.869C4.42042 135.103 3.98352 135.701 3.98352 136.398C3.98352 136.799 4.12684 137.164 4.36956 137.45C4.81339 136.587 5.67794 135.975 6.69506 135.879C7.07648 135.989 7.48102 136.051 7.89942 136.051C8.16295 136.051 8.41954 136.028 8.66688 135.984C8.44266 135.658 8.31089 135.264 8.31089 134.841C8.31089 133.723 9.21936 132.814 10.3451 132.814C10.4422 132.814 10.5347 132.821 10.6341 132.837C9.55917 133.29 8.90036 134.22 9.1269 135.064C9.28871 135.665 9.85506 136.081 10.5902 136.217C10.5809 136.668 10.4561 137.091 10.2434 137.457C11.1866 137.39 11.9933 136.822 12.3955 136.021C13.5074 135.577 14.1917 134.629 13.9628 133.769C13.8819 133.461 13.6877 133.201 13.4265 133.003C13.4242 132.973 13.4219 132.945 13.4219 132.915C13.4219 132.324 13.9074 131.841 14.4991 131.841C15.0978 131.841 15.581 132.324 15.581 132.915C15.581 133.196 15.4746 133.451 15.2966 133.642H17.5551C17.6961 133.642 17.8325 133.606 17.9504 133.544C18.0706 133.481 18.1746 133.389 18.2555 133.272L19.7049 131.133C19.7581 131.052 19.8321 130.992 19.913 130.949C19.9939 130.905 20.084 130.88 20.1834 130.88H21.9565C21.8594 130.88 21.7669 130.903 21.686 130.946C21.6051 130.99 21.5311 131.05 21.478 131.13L20.0239 133.27C19.943 133.389 19.839 133.481 19.7188 133.541C19.6032 133.603 19.4668 133.64 19.3235 133.64H22.0235C22.1668 133.64 22.3009 133.603 22.4165 133.541C22.5367 133.479 22.6453 133.387 22.7216 133.27L24.349 130.882C23.2279 130.27 22.7678 129.2 22.7678 127.73C22.7678 126.817 23.2833 125.772 23.3619 125.101L23.3943 124.834C23.4105 124.691 23.392 124.553 23.3434 124.429C23.3041 124.33 23.2279 124.185 23.14 124.084L24.5293 125.501C24.638 125.593 24.7165 125.71 24.7628 125.832C24.8136 125.957 24.8321 126.095 24.8159 126.235L24.7743 126.559C24.7073 127.121 23.9976 128.335 25.3176 129.446C25.3823 129.502 25.5464 129.617 25.7036 129.716L26.6421 130.302V126.856H27.9551V130.691C27.9575 130.834 27.9991 130.967 28.0661 131.08C28.1308 131.197 28.2256 131.301 28.3458 131.376L29.6288 132.189C29.7536 132.264 29.8877 132.308 30.0194 132.317C30.1535 132.327 30.2922 132.308 30.4217 132.251L32.7888 131.229C32.657 131.284 32.5183 131.307 32.3865 131.296C32.2525 131.287 32.1184 131.245 31.9982 131.167L29.282 129.449C30.6043 128.34 29.89 127.125 29.8229 126.562L29.7836 126.237C29.7652 126.097 29.786 125.959 29.8322 125.835C29.883 125.71 29.9616 125.595 30.068 125.503L31.4573 124.086C31.3717 124.185 31.2978 124.33 31.2538 124.431C31.2076 124.556 31.1891 124.694 31.2053 124.836L31.2353 125.103C31.3463 126.062 32.3218 127.797 31.5104 128.765L33.9931 130.334C34.1156 130.41 34.2497 130.449 34.3815 130.461C34.5156 130.472 34.6543 130.454 34.786 130.394L37.2595 129.324C37.1277 129.38 36.9913 129.4 36.8595 129.389C36.7255 129.38 36.5914 129.336 36.4689 129.26L33.7828 127.56C34.3676 126.368 33.8752 124.473 33.3089 123.375L33.2234 123.212C33.1609 123.083 33.1309 122.947 33.1355 122.814C33.1355 122.681 33.1702 122.547 33.2418 122.421L34.1619 120.767C34.0948 120.891 34.0602 121.027 34.0602 121.158C34.0555 121.291 34.0833 121.427 34.148 121.553L34.4855 122.211C34.6635 122.533 34.7629 122.729 34.9201 123.111C36.4296 121.756 36.7671 120.447 35.8031 119.331L35.5165 118.995C35.424 118.889 35.3616 118.763 35.3339 118.632C35.3015 118.503 35.3015 118.365 35.3408 118.227L35.8332 116.4C35.7962 116.536 35.7962 116.674 35.8239 116.803C35.8563 116.932 35.9164 117.058 36.0112 117.164L36.9566 118.264C38.7944 120.33 37.6825 122.993 35.4888 125.023C35.609 125.411 35.7153 126.143 35.6274 126.539L38.5401 128.377C38.6603 128.455 38.7967 128.496 38.9308 128.505C39.0625 128.517 39.2012 128.496 39.333 128.439L41.4389 127.525C41.3187 127.576 41.1846 127.606 41.0482 127.606C40.505 127.606 40.0658 127.169 40.0658 126.631C40.0658 126.193 40.3501 125.818 40.75 125.699C48.7899 123.263 56.1917 116.982 61.0508 116.996C63.4133 117.003 65.3273 118.427 65.3273 120.189C65.3273 120.472 65.2764 120.751 65.184 121.015C64.1484 123.911 65.6579 126.677 69.6385 127.739C70.2742 127.912 70.7434 128.489 70.7434 129.173C70.7434 129.306 70.725 129.437 70.6926 129.557C70.7827 129.566 70.8752 129.568 70.97 129.568C72.0657 129.568 73.0366 129.025 73.6237 128.195C74.3057 128.19 75.0546 128.149 75.8198 128.068C75.9123 128.252 75.9839 128.464 76.0301 128.692C76.1943 129.522 75.903 130.277 75.3875 130.442C74.4744 130.739 73.3533 130.385 72.4864 130.392C70.8498 130.408 69.5252 131.733 69.5252 133.364C69.5252 133.493 69.5322 133.619 69.5483 133.744C69.0328 134.063 68.693 134.632 68.693 135.276C68.693 135.598 68.7786 135.902 68.9242 136.164C69.4281 135.577 70.0869 135.126 70.8336 134.864C70.8983 133.433 72.0819 132.294 73.5336 132.294C73.7555 132.294 73.9751 132.322 74.1808 132.373C72.7083 132.557 71.5687 133.808 71.5687 135.324C71.5687 135.435 71.5756 135.543 71.5872 135.651C71.4046 135.869 71.2936 136.152 71.2936 136.458C71.2936 136.847 71.4693 137.199 71.7444 137.431C72.0218 136.826 72.6922 136.258 73.559 135.966C74.1416 135.773 74.7148 135.734 75.191 135.83C75.1124 135.602 75.0754 135.359 75.0754 135.108C75.0754 133.815 76.1249 132.768 77.4264 132.768C77.5466 132.768 77.6645 132.777 77.7801 132.796C76.8739 132.918 76.1758 133.691 76.1758 134.625C76.1758 135.246 76.4832 135.793 76.9525 136.127C76.9525 136.161 76.9502 136.194 76.9502 136.228C76.9502 136.734 77.1837 137.19 77.5489 137.487C77.7153 136.638 78.4597 135.998 79.3635 135.998C80.1333 135.998 80.769 135.902 81.2452 135.745C82.0496 135.483 82.6368 134.742 82.6368 133.856C82.6368 133.242 82.3571 132.695 81.9133 132.333C82.1329 131.34 82.0936 129.706 81.7538 128.349C81.8208 128.34 81.8925 128.335 81.9664 128.335C82.5282 128.335 83.0228 128.623 83.3095 129.058L83.3303 129.071ZM112.501 -0.00195312H109.738V164.998H112.501V-0.00195312Z" fill="black"/>
<path d="M138.269 84.0459H132.717V81.1309H138.269C139.235 81.1309 140.017 80.9746 140.612 80.6621C141.208 80.3496 141.643 79.9199 141.916 79.373C142.199 78.8164 142.341 78.1816 142.341 77.4688C142.341 76.7949 142.199 76.165 141.916 75.5791C141.643 74.9834 141.208 74.5049 140.612 74.1436C140.017 73.7822 139.235 73.6016 138.269 73.6016H133.845V92H130.168V70.6719H138.269C139.919 70.6719 141.32 70.9648 142.473 71.5508C143.635 72.127 144.519 72.9277 145.124 73.9531C145.729 74.9688 146.032 76.1309 146.032 77.4395C146.032 78.8164 145.729 79.998 145.124 80.9844C144.519 81.9707 143.635 82.7275 142.473 83.2549C141.32 83.7822 139.919 84.0459 138.269 84.0459ZM148.967 74.2266H155.253C156.604 74.2266 157.756 74.43 158.708 74.8369C159.66 75.2438 160.389 75.846 160.893 76.6436C161.406 77.4329 161.662 78.4095 161.662 79.5732C161.662 80.4603 161.499 81.2415 161.174 81.917C160.848 82.5924 160.389 83.1621 159.794 83.626C159.2 84.0817 158.492 84.4357 157.67 84.688L156.743 85.1396H151.091L151.066 82.7104H155.302C156.035 82.7104 156.645 82.5802 157.133 82.3198C157.622 82.0594 157.988 81.7054 158.232 81.2578C158.484 80.8021 158.61 80.2894 158.61 79.7197C158.61 79.1012 158.488 78.5641 158.244 78.1084C158.008 77.6445 157.642 77.2905 157.146 77.0464C156.649 76.7941 156.018 76.668 155.253 76.668H152.031V92H148.967V74.2266ZM159.111 92L154.936 84.0166L158.146 84.0044L162.382 91.8413V92H159.111ZM176.347 89.5708V92H166.911V89.5708H176.347ZM167.778 74.2266V92H164.714V74.2266H167.778ZM175.114 81.6484V84.041H166.911V81.6484H175.114ZM176.286 74.2266V76.668H166.911V74.2266H176.286ZM188.2 87.4224C188.2 87.0562 188.143 86.7306 188.029 86.4458C187.924 86.161 187.732 85.9006 187.456 85.6646C187.179 85.4285 186.788 85.2007 186.284 84.981C185.787 84.7531 185.153 84.5212 184.379 84.2852C183.533 84.0247 182.752 83.7358 182.036 83.4185C181.328 83.0929 180.709 82.7186 180.18 82.2954C179.651 81.8641 179.24 81.3717 178.947 80.8184C178.654 80.2568 178.508 79.6099 178.508 78.8774C178.508 78.1532 178.658 77.494 178.959 76.8999C179.269 76.3058 179.704 75.7931 180.266 75.3618C180.835 74.9224 181.507 74.5846 182.28 74.3486C183.053 74.1045 183.907 73.9824 184.843 73.9824C186.162 73.9824 187.297 74.2266 188.249 74.7148C189.209 75.2031 189.946 75.8582 190.458 76.6802C190.979 77.5021 191.24 78.4095 191.24 79.4023H188.2C188.2 78.8164 188.074 78.2996 187.822 77.8521C187.578 77.3963 187.203 77.0382 186.699 76.7778C186.202 76.5174 185.572 76.3872 184.807 76.3872C184.082 76.3872 183.48 76.4971 183 76.7168C182.52 76.9365 182.162 77.2336 181.926 77.6079C181.69 77.9823 181.572 78.4054 181.572 78.8774C181.572 79.2111 181.649 79.5163 181.804 79.793C181.958 80.0615 182.194 80.3138 182.512 80.5498C182.829 80.7777 183.228 80.9933 183.708 81.1968C184.188 81.4002 184.754 81.5955 185.405 81.7827C186.389 82.0757 187.248 82.4012 187.98 82.7593C188.713 83.1092 189.323 83.508 189.812 83.9556C190.3 84.4032 190.666 84.9118 190.91 85.4814C191.154 86.043 191.276 86.6818 191.276 87.3979C191.276 88.1466 191.126 88.8221 190.825 89.4243C190.524 90.0184 190.092 90.527 189.531 90.9502C188.977 91.3652 188.31 91.6867 187.529 91.9146C186.756 92.1343 185.893 92.2441 184.941 92.2441C184.086 92.2441 183.244 92.1302 182.414 91.9023C181.592 91.6745 180.843 91.3286 180.168 90.8647C179.493 90.3927 178.955 89.8068 178.557 89.1069C178.158 88.3989 177.958 87.5729 177.958 86.6289H181.022C181.022 87.2067 181.12 87.6991 181.315 88.106C181.519 88.5129 181.8 88.8465 182.158 89.1069C182.516 89.3592 182.931 89.5464 183.403 89.6685C183.883 89.7905 184.396 89.8516 184.941 89.8516C185.657 89.8516 186.255 89.7498 186.735 89.5464C187.224 89.3429 187.59 89.0581 187.834 88.6919C188.078 88.3257 188.2 87.9025 188.2 87.4224ZM197.258 74.2266V92H194.194V74.2266H197.258ZM206.23 92H202.434L202.458 89.5708H206.23C207.329 89.5708 208.248 89.3307 208.989 88.8506C209.737 88.3704 210.299 87.6828 210.673 86.7876C211.056 85.8924 211.247 84.8263 211.247 83.5894V82.625C211.247 81.6647 211.137 80.8143 210.917 80.0737C210.706 79.3332 210.389 78.7106 209.965 78.2061C209.55 77.7015 209.038 77.319 208.427 77.0586C207.825 76.7982 207.129 76.668 206.34 76.668H202.36V74.2266H206.34C207.52 74.2266 208.598 74.4259 209.575 74.8247C210.551 75.2153 211.394 75.7809 212.102 76.5215C212.818 77.262 213.367 78.1491 213.75 79.1826C214.132 80.2161 214.323 81.3717 214.323 82.6494V83.5894C214.323 84.867 214.132 86.0226 213.75 87.0562C213.367 88.0897 212.818 88.9767 212.102 89.7173C211.385 90.4497 210.531 91.0153 209.538 91.4141C208.553 91.8047 207.451 92 206.23 92ZM204.13 74.2266V92H201.066V74.2266H204.13ZM229.033 89.5708V92H219.597V89.5708H229.033ZM220.463 74.2266V92H217.399V74.2266H220.463ZM227.8 81.6484V84.041H219.597V81.6484H227.8ZM228.972 74.2266V76.668H219.597V74.2266H228.972ZM245.634 74.2266V92H242.57L234.599 79.2681V92H231.535V74.2266H234.599L242.595 86.9829V74.2266H245.634ZM254.448 92H250.651L250.676 89.5708H254.448C255.546 89.5708 256.466 89.3307 257.207 88.8506C257.955 88.3704 258.517 87.6828 258.891 86.7876C259.274 85.8924 259.465 84.8263 259.465 83.5894V82.625C259.465 81.6647 259.355 80.8143 259.135 80.0737C258.924 79.3332 258.606 78.7106 258.183 78.2061C257.768 77.7015 257.255 77.319 256.645 77.0586C256.043 76.7982 255.347 76.668 254.558 76.668H250.578V74.2266H254.558C255.738 74.2266 256.816 74.4259 257.792 74.8247C258.769 75.2153 259.611 75.7809 260.319 76.5215C261.035 77.262 261.585 78.1491 261.967 79.1826C262.35 80.2161 262.541 81.3717 262.541 82.6494V83.5894C262.541 84.867 262.35 86.0226 261.967 87.0562C261.585 88.0897 261.035 88.9767 260.319 89.7173C259.603 90.4497 258.749 91.0153 257.756 91.4141C256.771 91.8047 255.668 92 254.448 92ZM252.348 74.2266V92H249.284V74.2266H252.348ZM268.889 74.2266V92H265.825V74.2266H268.889ZM282.961 70.6719V92H279.284V70.6719H282.961ZM295.778 70.6719L287.136 80.9404L282.214 86.1553L281.569 82.5078L285.085 78.1719L291.296 70.6719H295.778ZM291.823 92L284.807 81.8926L287.341 79.3877L296.188 92H291.823ZM304.799 76.5947L299.489 92H296.279L302.968 74.2266H305.019L304.799 76.5947ZM309.243 92L303.92 76.5947L303.688 74.2266H305.751L312.465 92H309.243ZM308.986 85.4082V87.8374H299.318V85.4082H308.986ZM328.554 74.2266V92H325.49L317.519 79.2681V92H314.455V74.2266H317.519L325.515 86.9829V74.2266H328.554ZM339.15 74.2266V92H336.11V74.2266H339.15ZM344.729 74.2266V76.668H330.581V74.2266H344.729ZM356.228 87.4224C356.228 87.0562 356.171 86.7306 356.057 86.4458C355.951 86.161 355.76 85.9006 355.483 85.6646C355.206 85.4285 354.816 85.2007 354.311 84.981C353.815 84.7531 353.18 84.5212 352.407 84.2852C351.56 84.0247 350.779 83.7358 350.063 83.4185C349.355 83.0929 348.736 82.7186 348.208 82.2954C347.679 81.8641 347.268 81.3717 346.975 80.8184C346.682 80.2568 346.535 79.6099 346.535 78.8774C346.535 78.1532 346.686 77.494 346.987 76.8999C347.296 76.3058 347.731 75.7931 348.293 75.3618C348.863 74.9224 349.534 74.5846 350.307 74.3486C351.08 74.1045 351.935 73.9824 352.871 73.9824C354.189 73.9824 355.324 74.2266 356.276 74.7148C357.237 75.2031 357.973 75.8582 358.486 76.6802C359.007 77.5021 359.267 78.4095 359.267 79.4023H356.228C356.228 78.8164 356.101 78.2996 355.849 77.8521C355.605 77.3963 355.231 77.0382 354.726 76.7778C354.23 76.5174 353.599 76.3872 352.834 76.3872C352.11 76.3872 351.507 76.4971 351.027 76.7168C350.547 76.9365 350.189 77.2336 349.953 77.6079C349.717 77.9823 349.599 78.4054 349.599 78.8774C349.599 79.2111 349.676 79.5163 349.831 79.793C349.986 80.0615 350.222 80.3138 350.539 80.5498C350.856 80.7777 351.255 80.9933 351.735 81.1968C352.215 81.4002 352.781 81.5955 353.432 81.7827C354.417 82.0757 355.275 82.4012 356.008 82.7593C356.74 83.1092 357.351 83.508 357.839 83.9556C358.327 84.4032 358.693 84.9118 358.938 85.4814C359.182 86.043 359.304 86.6818 359.304 87.3979C359.304 88.1466 359.153 88.8221 358.852 89.4243C358.551 90.0184 358.12 90.527 357.558 90.9502C357.005 91.3652 356.337 91.6867 355.556 91.9146C354.783 92.1343 353.92 92.2441 352.968 92.2441C352.114 92.2441 351.271 92.1302 350.441 91.9023C349.619 91.6745 348.871 91.3286 348.195 90.8647C347.52 90.3927 346.983 89.8068 346.584 89.1069C346.185 88.3989 345.986 87.5729 345.986 86.6289H349.05C349.05 87.2067 349.147 87.6991 349.343 88.106C349.546 88.5129 349.827 88.8465 350.185 89.1069C350.543 89.3592 350.958 89.5464 351.43 89.6685C351.91 89.7905 352.423 89.8516 352.968 89.8516C353.684 89.8516 354.283 89.7498 354.763 89.5464C355.251 89.3429 355.617 89.0581 355.861 88.6919C356.105 88.3257 356.228 87.9025 356.228 87.4224ZM373.647 89.5708V92H364.211V89.5708H373.647ZM365.078 74.2266V92H362.014V74.2266H365.078ZM372.414 81.6484V84.041H364.211V81.6484H372.414ZM373.586 74.2266V76.668H364.211V74.2266H373.586ZM387.282 89.5708V92H378.359V89.5708H387.282ZM379.213 74.2266V92H376.149V74.2266H379.213ZM401.284 89.5708V92H391.848V89.5708H401.284ZM392.714 74.2266V92H389.65V74.2266H392.714ZM400.051 81.6484V84.041H391.848V81.6484H400.051ZM401.223 74.2266V76.668H391.848V74.2266H401.223ZM407.058 74.2266V92H403.994V74.2266H407.058Z" fill="black"/>
</svg>
