<svg width="169" height="57" viewBox="0 0 169 57" fill="none" xmlns="http://www.w3.org/2000/svg">
<rect x="3.50914" y="3.50914" width="46.0574" height="49.1279" rx="17.9843" stroke="url(#paint0_linear_218_3679)" stroke-opacity="0.99" stroke-width="7.01828"/>
<path d="M49.5762 30.2422C47.504 26.5911 43.9703 21.7977 38.9999 20.3454C37.6101 20.0631 36.1574 19.9329 32.654 19.7392L18.4235 19.7385" stroke="url(#paint1_linear_218_3679)" stroke-opacity="0.99" stroke-width="7.01828" stroke-linecap="round"/>
<path d="M3.50916 25.6602C5.58145 29.3111 9.06772 34.2953 14.0382 35.7474C15.428 36.0295 16.8807 36.1597 20.3842 36.3532H34.6146" stroke="url(#paint2_linear_218_3679)" stroke-opacity="0.99" stroke-width="7.01828" stroke-linecap="round"/>
<path d="M65.1888 36.0818C63.9913 36.0818 62.9174 35.8822 61.967 35.4831C61.0166 35.0649 60.2658 34.4946 59.7146 33.7723C59.1634 33.031 58.8592 32.1852 58.8022 31.2348H61.4823C61.5583 32.0141 61.9195 32.6509 62.5658 33.1451C63.231 33.6393 64.0959 33.8864 65.1603 33.8864C66.1487 33.8864 66.9281 33.6678 67.4983 33.2306C68.0685 32.7934 68.3536 32.2422 68.3536 31.5769C68.3536 30.8927 68.0495 30.389 67.4413 30.0658C66.833 29.7237 65.8921 29.391 64.6186 29.0679C63.4591 28.7638 62.5087 28.4597 61.7674 28.1555C61.0451 27.8324 60.4179 27.3667 59.8857 26.7585C59.3724 26.1312 59.1158 25.3139 59.1158 24.3064C59.1158 23.5081 59.3534 22.7763 59.8286 22.111C60.3038 21.4458 60.9786 20.9231 61.853 20.5429C62.7273 20.1437 63.7252 19.9441 64.8467 19.9441C66.5764 19.9441 67.9735 20.3813 69.0379 21.2557C70.1024 22.1301 70.6726 23.3275 70.7486 24.8482H68.1541C68.097 24.0308 67.7644 23.3751 67.1562 22.8809C66.5669 22.3867 65.7686 22.1396 64.7612 22.1396C63.8298 22.1396 63.0885 22.3391 62.5372 22.7383C61.986 23.1375 61.7104 23.6602 61.7104 24.3064C61.7104 24.8197 61.872 25.2473 62.1951 25.5895C62.5372 25.9126 62.9554 26.1787 63.4496 26.3878C63.9628 26.5779 64.6661 26.7965 65.5595 27.0436C66.681 27.3477 67.5933 27.6518 68.2966 27.956C68.9999 28.2411 69.5987 28.6782 70.0929 29.2675C70.6061 29.8567 70.8722 30.6266 70.8912 31.5769C70.8912 32.4323 70.6536 33.2021 70.1784 33.8864C69.7032 34.5707 69.0284 35.1124 68.1541 35.5116C67.2987 35.8917 66.3103 36.0818 65.1888 36.0818ZM77.1484 23.0804C77.6616 22.1871 78.4219 21.4458 79.4293 20.8565C80.4558 20.2483 81.6438 19.9441 82.9933 19.9441C84.3809 19.9441 85.6354 20.2768 86.7569 20.9421C87.8973 21.6073 88.7907 22.5482 89.437 23.7647C90.0832 24.9622 90.4064 26.3593 90.4064 27.956C90.4064 29.5336 90.0832 30.9402 89.437 32.1757C88.7907 33.4112 87.8973 34.3711 86.7569 35.0554C85.6354 35.7397 84.3809 36.0818 82.9933 36.0818C81.6628 36.0818 80.4843 35.7872 79.4579 35.1979C78.4504 34.5897 77.6806 33.8389 77.1484 32.9455V43.2383H74.5538V20.2008H77.1484V23.0804ZM87.7548 27.956C87.7548 26.7775 87.5172 25.751 87.042 24.8767C86.5668 24.0023 85.9205 23.337 85.1032 22.8809C84.3049 22.4247 83.421 22.1966 82.4516 22.1966C81.5012 22.1966 80.6173 22.4342 79.8 22.9094C79.0017 23.3656 78.3554 24.0403 77.8612 24.9337C77.386 25.8081 77.1484 26.825 77.1484 27.9845C77.1484 29.1629 77.386 30.1989 77.8612 31.0922C78.3554 31.9666 79.0017 32.6414 79.8 33.1166C80.6173 33.5728 81.5012 33.8009 82.4516 33.8009C83.421 33.8009 84.3049 33.5728 85.1032 33.1166C85.9205 32.6414 86.5668 31.9666 87.042 31.0922C87.5172 30.1989 87.7548 29.1534 87.7548 27.956ZM95.1616 17.6632C94.6674 17.6632 94.2492 17.4921 93.9071 17.15C93.5649 16.8079 93.3939 16.3897 93.3939 15.8955C93.3939 15.4013 93.5649 14.9831 93.9071 14.641C94.2492 14.2988 94.6674 14.1278 95.1616 14.1278C95.6368 14.1278 96.036 14.2988 96.3591 14.641C96.7012 14.9831 96.8723 15.4013 96.8723 15.8955C96.8723 16.3897 96.7012 16.8079 96.3591 17.15C96.036 17.4921 95.6368 17.6632 95.1616 17.6632ZM96.4161 20.2008V35.8252H93.8215V20.2008H96.4161ZM108.451 19.9156C110.352 19.9156 111.891 20.4954 113.07 21.6549C114.248 22.7953 114.837 24.449 114.837 26.6159V35.8252H112.271V26.9866C112.271 25.4279 111.882 24.2399 111.102 23.4226C110.323 22.5862 109.259 22.1681 107.909 22.1681C106.54 22.1681 105.448 22.5957 104.63 23.4511C103.832 24.3064 103.433 25.5515 103.433 27.1861V35.8252H100.838V20.2008H103.433V22.4247C103.946 21.6263 104.64 21.0086 105.514 20.5714C106.407 20.1342 107.386 19.9156 108.451 19.9156ZM124.892 33.4302L129.739 20.2008H132.505L126.375 35.8252H123.352L117.222 20.2008H120.016L124.892 33.4302ZM136.398 17.6632C135.904 17.6632 135.485 17.4921 135.143 17.15C134.801 16.8079 134.63 16.3897 134.63 15.8955C134.63 15.4013 134.801 14.9831 135.143 14.641C135.485 14.2988 135.904 14.1278 136.398 14.1278C136.873 14.1278 137.272 14.2988 137.595 14.641C137.937 14.9831 138.109 15.4013 138.109 15.8955C138.109 16.3897 137.937 16.8079 137.595 17.15C137.272 17.4921 136.873 17.6632 136.398 17.6632ZM137.652 20.2008V35.8252H135.058V20.2008H137.652ZM145.239 22.3391V31.5484C145.239 32.3087 145.401 32.8505 145.724 33.1736C146.047 33.4777 146.608 33.6298 147.406 33.6298H149.316V35.8252H146.978C145.534 35.8252 144.45 35.4926 143.728 34.8273C143.006 34.162 142.645 33.0691 142.645 31.5484V22.3391H140.62V20.2008H142.645V16.2661H145.239V20.2008H149.316V22.3391H145.239ZM166.716 27.4142C166.716 27.9084 166.687 28.4311 166.63 28.9824H154.142C154.237 30.522 154.76 31.729 155.71 32.6034C156.68 33.4587 157.849 33.8864 159.217 33.8864C160.339 33.8864 161.27 33.6298 162.011 33.1166C162.772 32.5844 163.304 31.8811 163.608 31.0067H166.402C165.984 32.5083 165.148 33.7343 163.893 34.6847C162.639 35.6161 161.08 36.0818 159.217 36.0818C157.735 36.0818 156.404 35.7492 155.226 35.0839C154.066 34.4186 153.154 33.4777 152.488 32.2612C151.823 31.0257 151.491 29.6001 151.491 27.9845C151.491 26.3688 151.814 24.9527 152.46 23.7362C153.106 22.5197 154.009 21.5883 155.169 20.9421C156.347 20.2768 157.697 19.9441 159.217 19.9441C160.7 19.9441 162.011 20.2673 163.152 20.9136C164.292 21.5598 165.167 22.4532 165.775 23.5937C166.402 24.7151 166.716 25.9886 166.716 27.4142ZM164.036 26.8725C164.036 25.8841 163.817 25.0382 163.38 24.335C162.943 23.6127 162.344 23.0709 161.584 22.7098C160.842 22.3296 160.016 22.1396 159.103 22.1396C157.792 22.1396 156.67 22.5577 155.739 23.3941C154.826 24.2304 154.304 25.3899 154.171 26.8725H164.036Z" fill="#089993"/>
<defs>
<linearGradient id="paint0_linear_218_3679" x1="26.5379" y1="0" x2="26.5379" y2="56.1462" gradientUnits="userSpaceOnUse">
<stop stop-color="#462EFF"/>
<stop offset="0.0001" stop-color="#00958F"/>
<stop offset="1" stop-color="#ADF7F4"/>
</linearGradient>
<linearGradient id="paint1_linear_218_3679" x1="19.3003" y1="20.1771" x2="41.2324" y2="21.7125" gradientUnits="userSpaceOnUse">
<stop stop-color="#079892"/>
<stop offset="1" stop-color="#6CD2CE"/>
</linearGradient>
<linearGradient id="paint2_linear_218_3679" x1="4.38644" y1="25.8795" x2="31.5823" y2="36.4069" gradientUnits="userSpaceOnUse">
<stop stop-color="#43BBB6"/>
<stop offset="1" stop-color="#A1F0ED"/>
</linearGradient>
</defs>
</svg>
