<svg width="24" height="24" viewBox="0 0 24 24" fill="none" xmlns="http://www.w3.org/2000/svg">
<path d="M6 21.5C5.30133 21.5 4.71 21.258 4.226 20.774C3.742 20.29 3.5 19.6986 3.5 19V17.404C3.5 17.1461 3.58625 16.9311 3.75875 16.7587C3.93108 16.5862 4.14617 16.5 4.404 16.5H6.5V3.18647C6.5 3.08263 6.542 3.01313 6.626 2.97797C6.71 2.94263 6.79042 2.95705 6.86725 3.02122L7.602 3.63072C7.68917 3.70505 7.78342 3.74222 7.88475 3.74222C7.98592 3.74222 8.08008 3.70505 8.16725 3.63072L9.00575 2.94622C9.09292 2.87188 9.18717 2.83472 9.2885 2.83472C9.38983 2.83472 9.48408 2.87188 9.57125 2.94622L10.4098 3.63072C10.4969 3.70505 10.5911 3.74222 10.6923 3.74222C10.7936 3.74222 10.8878 3.70505 10.975 3.63072L11.8135 2.94622C11.9007 2.87188 11.9949 2.83472 12.0963 2.83472C12.1974 2.83472 12.2916 2.87188 12.3787 2.94622L13.2172 3.63072C13.3044 3.70505 13.3987 3.74222 13.5 3.74222C13.6013 3.74222 13.6956 3.70505 13.7828 3.63072L14.6212 2.94622C14.7084 2.87188 14.8026 2.83472 14.9038 2.83472C15.0051 2.83472 15.0993 2.87188 15.1865 2.94622L16.025 3.63072C16.1122 3.70505 16.2064 3.74222 16.3077 3.74222C16.4089 3.74222 16.5031 3.70505 16.5903 3.63072L17.4288 2.94622C17.5159 2.87188 17.6102 2.83472 17.7115 2.83472C17.8128 2.83472 17.9071 2.87188 17.9943 2.94622L18.8328 3.63072C18.9199 3.70505 19.0141 3.74222 19.1152 3.74222C19.2166 3.74222 19.3108 3.70505 19.398 3.63072L20.1327 3.02122C20.2096 2.95705 20.29 2.94263 20.374 2.97797C20.458 3.01313 20.5 3.08263 20.5 3.18647V19C20.5 19.6986 20.258 20.29 19.774 20.774C19.29 21.258 18.6987 21.5 18 21.5H6ZM18 20C18.2833 20 18.5208 19.9041 18.7125 19.7125C18.9042 19.5208 19 19.2833 19 19V4.99997H8V16.5H16.0962C16.3539 16.5 16.5689 16.5862 16.7413 16.7587C16.9138 16.9311 17 17.1461 17 17.404V19C17 19.2833 17.0958 19.5208 17.2875 19.7125C17.4792 19.9041 17.7167 20 18 20ZM9.94225 7.24997H14.1155C14.3282 7.24997 14.5063 7.3218 14.65 7.46547C14.7935 7.60897 14.8652 7.78713 14.8652 7.99997C14.8652 8.2128 14.7935 8.39097 14.65 8.53447C14.5063 8.67813 14.3282 8.74997 14.1155 8.74997H9.94225C9.72942 8.74997 9.55125 8.67813 9.40775 8.53447C9.26408 8.39097 9.19225 8.2128 9.19225 7.99997C9.19225 7.78713 9.26408 7.60897 9.40775 7.46547C9.55125 7.3218 9.72942 7.24997 9.94225 7.24997ZM9.94225 10.25H14.1155C14.3282 10.25 14.5063 10.3218 14.65 10.4655C14.7935 10.609 14.8652 10.7871 14.8652 11C14.8652 11.2128 14.7935 11.391 14.65 11.5345C14.5063 11.6781 14.3282 11.75 14.1155 11.75H9.94225C9.72942 11.75 9.55125 11.6781 9.40775 11.5345C9.26408 11.391 9.19225 11.2128 9.19225 11C9.19225 10.7871 9.26408 10.609 9.40775 10.4655C9.55125 10.3218 9.72942 10.25 9.94225 10.25ZM16.9423 8.88447C16.6974 8.88447 16.4888 8.7983 16.3163 8.62597C16.1439 8.45347 16.0577 8.2448 16.0577 7.99997C16.0577 7.75513 16.1439 7.54647 16.3163 7.37397C16.4888 7.20163 16.6974 7.11547 16.9423 7.11547C17.1871 7.11547 17.3958 7.20163 17.5682 7.37397C17.7407 7.54647 17.827 7.75513 17.827 7.99997C17.827 8.2448 17.7407 8.45347 17.5682 8.62597C17.3958 8.7983 17.1871 8.88447 16.9423 8.88447ZM16.9423 11.8845C16.6974 11.8845 16.4888 11.7983 16.3163 11.626C16.1439 11.4535 16.0577 11.2448 16.0577 11C16.0577 10.7551 16.1439 10.5465 16.3163 10.374C16.4888 10.2016 16.6974 10.1155 16.9423 10.1155C17.1871 10.1155 17.3958 10.2016 17.5682 10.374C17.7407 10.5465 17.827 10.7551 17.827 11C17.827 11.2448 17.7407 11.4535 17.5682 11.626C17.3958 11.7983 17.1871 11.8845 16.9423 11.8845ZM6 20H15.5V18H5V19C5 19.2833 5.09583 19.5208 5.2875 19.7125C5.47917 19.9041 5.71667 20 6 20Z" fill="#114B5F"/>
</svg>
