<svg width="24" height="24" viewBox="0 0 24 24" fill="none" xmlns="http://www.w3.org/2000/svg">
<path d="M18.7712 16.75H15C14.7875 16.75 14.6094 16.6781 14.4658 16.5343C14.3219 16.3904 14.25 16.2122 14.25 15.9998C14.25 15.7871 14.3219 15.609 14.4658 15.4655C14.6094 15.3218 14.7875 15.25 15 15.25H18.7712L17.4578 13.9173C17.3193 13.7788 17.2516 13.6073 17.2548 13.403C17.2581 13.1985 17.3341 13.0213 17.4827 12.8715C17.6191 12.7342 17.7926 12.6655 18.0033 12.6655C18.2139 12.6655 18.3885 12.7347 18.527 12.873L21.0115 15.3673C21.0948 15.4506 21.1583 15.5474 21.202 15.6578C21.2455 15.7683 21.2673 15.8823 21.2673 16C21.2673 16.1177 21.2455 16.2318 21.202 16.3422C21.1583 16.4526 21.0948 16.5494 21.0115 16.6328L18.5173 19.127C18.3787 19.2653 18.2073 19.3355 18.003 19.3375C17.7985 19.3393 17.6213 19.2653 17.4715 19.1155C17.3342 18.9782 17.2655 18.8063 17.2655 18.6C17.2655 18.3937 17.3347 18.2213 17.473 18.0828L18.7712 16.75ZM4.05775 16.75C3.56058 16.75 3.135 16.573 2.781 16.219C2.427 15.865 2.25 15.4394 2.25 14.9423V5.05775C2.25 4.56058 2.427 4.135 2.781 3.781C3.135 3.427 3.56058 3.25 4.05775 3.25H16.9423C17.4394 3.25 17.865 3.427 18.219 3.781C18.573 4.135 18.75 4.56058 18.75 5.05775V9.54625C18.75 9.74242 18.674 9.91642 18.522 10.0682C18.3702 10.2202 18.1948 10.2962 17.996 10.2962C17.7847 10.2962 17.6075 10.2243 17.4645 10.0805C17.3215 9.93683 17.25 9.75875 17.25 9.54625V5.823L10.4 10.6923L3.75 5.8385V14.9423C3.75 15.0321 3.77883 15.1058 3.8365 15.1635C3.89417 15.2212 3.96792 15.25 4.05775 15.25H11.5463C11.7587 15.25 11.9368 15.3219 12.0805 15.4658C12.2243 15.6096 12.2963 15.7878 12.2963 16.0003C12.2963 16.2129 12.2243 16.391 12.0805 16.5345C11.9368 16.6782 11.7587 16.75 11.5463 16.75H4.05775ZM4.796 4.75L10.4 8.85775L16.1733 4.75H4.796Z" fill="#114B5F"/>
</svg>
