<svg width="24" height="24" viewBox="0 0 24 24" fill="none" xmlns="http://www.w3.org/2000/svg">
<path d="M4.05775 11C3.56058 11 3.135 10.823 2.781 10.469C2.427 10.115 2.25 9.68942 2.25 9.19225V6.05775C2.25 5.56058 2.427 5.135 2.781 4.781C3.135 4.427 3.56058 4.25 4.05775 4.25H12.0963C12.3523 4.25 12.5669 4.33658 12.7402 4.50975C12.9134 4.68308 13 4.89775 13 5.15375V10.0962C13 10.3522 12.9134 10.5669 12.7402 10.7402C12.5669 10.9134 12.3523 11 12.0963 11H4.05775ZM4.05775 9.5H11.5V5.75H4.05775C3.96792 5.75 3.89417 5.77883 3.8365 5.8365C3.77883 5.89417 3.75 5.96792 3.75 6.05775V9.19225C3.75 9.28208 3.77883 9.35583 3.8365 9.4135C3.89417 9.47117 3.96792 9.5 4.05775 9.5ZM4.05775 19.75C3.56058 19.75 3.135 19.573 2.781 19.219C2.427 18.865 2.25 18.4394 2.25 17.9423V14.8077C2.25 14.3106 2.427 13.885 2.781 13.531C3.135 13.177 3.56058 13 4.05775 13H14.0962C14.3522 13 14.5669 13.0866 14.7402 13.2598C14.9134 13.4331 15 13.6477 15 13.9038V18.8462C15 19.1022 14.9134 19.3169 14.7402 19.4902C14.5669 19.6634 14.3522 19.75 14.0962 19.75H4.05775ZM4.05775 18.25H13.5V14.5H4.05775C3.96792 14.5 3.89417 14.5288 3.8365 14.5865C3.77883 14.6442 3.75 14.7179 3.75 14.8077V17.9423C3.75 18.0321 3.77883 18.1058 3.8365 18.1635C3.89417 18.2212 3.96792 18.25 4.05775 18.25ZM17 11H15.9038C15.6478 11 15.4331 10.9134 15.2598 10.7402C15.0866 10.5669 15 10.3522 15 10.0962V5.15375C15 4.89775 15.0866 4.68308 15.2598 4.50975C15.4331 4.33658 15.6478 4.25 15.9038 4.25H20.3038C20.6209 4.25 20.8701 4.38142 21.0513 4.64425C21.2324 4.90708 21.2628 5.18917 21.1423 5.4905L19.6345 9.30775H20.2288C20.5571 9.30775 20.8065 9.44592 20.977 9.72225C21.1475 9.99842 21.1725 10.2872 21.052 10.5885L17.8635 19.4385C17.8173 19.5572 17.7481 19.6388 17.6557 19.6833C17.5634 19.7278 17.4653 19.7365 17.3615 19.7095C17.2577 19.6827 17.1715 19.6312 17.103 19.555C17.0343 19.4787 17 19.3796 17 19.2578V11ZM6.375 7.625C6.375 7.40833 6.30417 7.22917 6.1625 7.0875C6.02083 6.94583 5.84167 6.875 5.625 6.875C5.40833 6.875 5.22917 6.94583 5.0875 7.0875C4.94583 7.22917 4.875 7.40833 4.875 7.625C4.875 7.84167 4.94583 8.02083 5.0875 8.1625C5.22917 8.30417 5.40833 8.375 5.625 8.375C5.84167 8.375 6.02083 8.30417 6.1625 8.1625C6.30417 8.02083 6.375 7.84167 6.375 7.625ZM5.625 17.125C5.84167 17.125 6.02083 17.0542 6.1625 16.9125C6.30417 16.7708 6.375 16.5917 6.375 16.375C6.375 16.1583 6.30417 15.9792 6.1625 15.8375C6.02083 15.6958 5.84167 15.625 5.625 15.625C5.40833 15.625 5.22917 15.6958 5.0875 15.8375C4.94583 15.9792 4.875 16.1583 4.875 16.375C4.875 16.5917 4.94583 16.7708 5.0875 16.9125C5.22917 17.0542 5.40833 17.125 5.625 17.125Z" fill="#114B5F"/>
</svg>
